<?xml version="1.0" encoding="UTF-8" standalone="no"?>
<!DOCTYPE svg PUBLIC "-//W3C//DTD SVG 1.1//EN"
 "http://www.w3.org/Graphics/SVG/1.1/DTD/svg11.dtd">
<!-- Generated by graphviz version 2.40.1 (20161225.0304)
 -->
<!-- Title: Tree Pages: 1 -->
<svg width="551pt" height="433pt"
 viewBox="0.00 0.00 551.00 433.00" xmlns="http://www.w3.org/2000/svg" xmlns:xlink="http://www.w3.org/1999/xlink">
<g id="graph0" class="graph" transform="scale(1 1) rotate(0) translate(4 429)">
<title>Tree</title>
<polygon fill="#ffffff" stroke="transparent" points="-4,4 -4,-429 547,-429 547,4 -4,4"/>
<!-- 0 -->
<g id="node1" class="node">
<title>0</title>
<path fill="#ffffff" stroke="#000000" d="M259.5,-425C259.5,-425 123.5,-425 123.5,-425 117.5,-425 111.5,-419 111.5,-413 111.5,-413 111.5,-354 111.5,-354 111.5,-348 117.5,-342 123.5,-342 123.5,-342 259.5,-342 259.5,-342 265.5,-342 271.5,-348 271.5,-354 271.5,-354 271.5,-413 271.5,-413 271.5,-419 265.5,-425 259.5,-425"/>
<text text-anchor="start" x="119.5" y="-409.8" font-family="Helvetica,sans-Serif" font-size="14.00" fill="#000000">petal length (cm) ≤ 2.45</text>
<text text-anchor="start" x="156" y="-394.8" font-family="Helvetica,sans-Serif" font-size="14.00" fill="#000000">gini = 0.664</text>
<text text-anchor="start" x="146.5" y="-379.8" font-family="Helvetica,sans-Serif" font-size="14.00" fill="#000000">samples = 105</text>
<text text-anchor="start" x="133.5" y="-364.8" font-family="Helvetica,sans-Serif" font-size="14.00" fill="#000000">value = [31, 37, 37]</text>
<text text-anchor="start" x="139" y="-349.8" font-family="Helvetica,sans-Serif" font-size="14.00" fill="#000000">class = versicolor</text>
</g>
<!-- 1 -->
<g id="node2" class="node">
<title>1</title>
<path fill="#e58139" stroke="#000000" d="M160,-298.5C160,-298.5 67,-298.5 67,-298.5 61,-298.5 55,-292.5 55,-286.5 55,-286.5 55,-242.5 55,-242.5 55,-236.5 61,-230.5 67,-230.5 67,-230.5 160,-230.5 160,-230.5 166,-230.5 172,-236.5 172,-242.5 172,-242.5 172,-286.5 172,-286.5 172,-292.5 166,-298.5 160,-298.5"/>
<text text-anchor="start" x="85.5" y="-283.3" font-family="Helvetica,sans-Serif" font-size="14.00" fill="#000000">gini = 0.0</text>
<text text-anchor="start" x="72.5" y="-268.3" font-family="Helvetica,sans-Serif" font-size="14.00" fill="#000000">samples = 31</text>
<text text-anchor="start" x="63" y="-253.3" font-family="Helvetica,sans-Serif" font-size="14.00" fill="#000000">value = [31, 0, 0]</text>
<text text-anchor="start" x="70" y="-238.3" font-family="Helvetica,sans-Serif" font-size="14.00" fill="#000000">class = setosa</text>
</g>
<!-- 0&#45;&gt;1 -->
<g id="edge1" class="edge">
<title>0&#45;&gt;1</title>
<path fill="none" stroke="#000000" d="M164.2194,-341.8796C156.8677,-330.6636 148.9036,-318.5131 141.5126,-307.2372"/>
<polygon fill="#000000" stroke="#000000" points="144.4014,-305.2598 135.9921,-298.8149 138.5469,-309.0972 144.4014,-305.2598"/>
<text text-anchor="middle" x="130.8982" y="-319.5905" font-family="Helvetica,sans-Serif" font-size="14.00" fill="#000000">True</text>
</g>
<!-- 2 -->
<g id="node3" class="node">
<title>2</title>
<path fill="#ffffff" stroke="#000000" d="M338.5,-306C338.5,-306 202.5,-306 202.5,-306 196.5,-306 190.5,-300 190.5,-294 190.5,-294 190.5,-235 190.5,-235 190.5,-229 196.5,-223 202.5,-223 202.5,-223 338.5,-223 338.5,-223 344.5,-223 350.5,-229 350.5,-235 350.5,-235 350.5,-294 350.5,-294 350.5,-300 344.5,-306 338.5,-306"/>
<text text-anchor="start" x="198.5" y="-290.8" font-family="Helvetica,sans-Serif" font-size="14.00" fill="#000000">petal length (cm) ≤ 4.75</text>
<text text-anchor="start" x="242.5" y="-275.8" font-family="Helvetica,sans-Serif" font-size="14.00" fill="#000000">gini = 0.5</text>
<text text-anchor="start" x="229.5" y="-260.8" font-family="Helvetica,sans-Serif" font-size="14.00" fill="#000000">samples = 74</text>
<text text-anchor="start" x="216" y="-245.8" font-family="Helvetica,sans-Serif" font-size="14.00" fill="#000000">value = [0, 37, 37]</text>
<text text-anchor="start" x="218" y="-230.8" font-family="Helvetica,sans-Serif" font-size="14.00" fill="#000000">class = versicolor</text>
</g>
<!-- 0&#45;&gt;2 -->
<g id="edge2" class="edge">
<title>0&#45;&gt;2</title>
<path fill="none" stroke="#000000" d="M219.1304,-341.8796C224.93,-333.1434 231.1059,-323.8404 237.0908,-314.8253"/>
<polygon fill="#000000" stroke="#000000" points="240.1368,-316.5652 242.7517,-306.2981 234.3049,-312.6935 240.1368,-316.5652"/>
<text text-anchor="middle" x="247.7022" y="-327.103" font-family="Helvetica,sans-Serif" font-size="14.00" fill="#000000">False</text>
</g>
<!-- 3 -->
<g id="node4" class="node">
<title>3</title>
<path fill="#3fe685" stroke="#000000" d="M248,-187C248,-187 125,-187 125,-187 119,-187 113,-181 113,-175 113,-175 113,-116 113,-116 113,-110 119,-104 125,-104 125,-104 248,-104 248,-104 254,-104 260,-110 260,-116 260,-116 260,-175 260,-175 260,-181 254,-187 248,-187"/>
<text text-anchor="start" x="121" y="-171.8" font-family="Helvetica,sans-Serif" font-size="14.00" fill="#000000">petal width (cm) ≤ 1.6</text>
<text text-anchor="start" x="151" y="-156.8" font-family="Helvetica,sans-Serif" font-size="14.00" fill="#000000">gini = 0.059</text>
<text text-anchor="start" x="145.5" y="-141.8" font-family="Helvetica,sans-Serif" font-size="14.00" fill="#000000">samples = 33</text>
<text text-anchor="start" x="136" y="-126.8" font-family="Helvetica,sans-Serif" font-size="14.00" fill="#000000">value = [0, 32, 1]</text>
<text text-anchor="start" x="134" y="-111.8" font-family="Helvetica,sans-Serif" font-size="14.00" fill="#000000">class = versicolor</text>
</g>
<!-- 2&#45;&gt;3 -->
<g id="edge3" class="edge">
<title>2&#45;&gt;3</title>
<path fill="none" stroke="#000000" d="M241.1209,-222.8796C234.8906,-214.0534 228.2519,-204.6485 221.827,-195.5466"/>
<polygon fill="#000000" stroke="#000000" points="224.6308,-193.4494 216.0045,-187.2981 218.912,-197.4862 224.6308,-193.4494"/>
</g>
<!-- 4 -->
<g id="node7" class="node">
<title>4</title>
<path fill="#9254e9" stroke="#000000" d="M421,-187C421,-187 290,-187 290,-187 284,-187 278,-181 278,-175 278,-175 278,-116 278,-116 278,-110 284,-104 290,-104 290,-104 421,-104 421,-104 427,-104 433,-110 433,-116 433,-116 433,-175 433,-175 433,-181 427,-187 421,-187"/>
<text text-anchor="start" x="286" y="-171.8" font-family="Helvetica,sans-Serif" font-size="14.00" fill="#000000">petal width (cm) ≤ 1.75</text>
<text text-anchor="start" x="320" y="-156.8" font-family="Helvetica,sans-Serif" font-size="14.00" fill="#000000">gini = 0.214</text>
<text text-anchor="start" x="314.5" y="-141.8" font-family="Helvetica,sans-Serif" font-size="14.00" fill="#000000">samples = 41</text>
<text text-anchor="start" x="305" y="-126.8" font-family="Helvetica,sans-Serif" font-size="14.00" fill="#000000">value = [0, 5, 36]</text>
<text text-anchor="start" x="307" y="-111.8" font-family="Helvetica,sans-Serif" font-size="14.00" fill="#000000">class = virginica</text>
</g>
<!-- 2&#45;&gt;4 -->
<g id="edge6" class="edge">
<title>2&#45;&gt;4</title>
<path fill="none" stroke="#000000" d="M300.2289,-222.8796C306.5333,-214.0534 313.251,-204.6485 319.7524,-195.5466"/>
<polygon fill="#000000" stroke="#000000" points="322.6799,-197.4698 325.6442,-187.2981 316.9837,-193.4011 322.6799,-197.4698"/>
</g>
<!-- 7 -->
<g id="node5" class="node">
<title>7</title>
<path fill="#39e581" stroke="#000000" d="M109,-68C109,-68 12,-68 12,-68 6,-68 0,-62 0,-56 0,-56 0,-12 0,-12 0,-6 6,0 12,0 12,0 109,0 109,0 115,0 121,-6 121,-12 121,-12 121,-56 121,-56 121,-62 115,-68 109,-68"/>
<text text-anchor="start" x="32.5" y="-52.8" font-family="Helvetica,sans-Serif" font-size="14.00" fill="#000000">gini = 0.0</text>
<text text-anchor="start" x="19.5" y="-37.8" font-family="Helvetica,sans-Serif" font-size="14.00" fill="#000000">samples = 32</text>
<text text-anchor="start" x="10" y="-22.8" font-family="Helvetica,sans-Serif" font-size="14.00" fill="#000000">value = [0, 32, 0]</text>
<text text-anchor="start" x="8" y="-7.8" font-family="Helvetica,sans-Serif" font-size="14.00" fill="#000000">class = versicolor</text>
</g>
<!-- 3&#45;&gt;7 -->
<g id="edge4" class="edge">
<title>3&#45;&gt;7</title>
<path fill="none" stroke="#000000" d="M139.5823,-103.9815C128.8848,-94.5151 117.5244,-84.462 106.8508,-75.0168"/>
<polygon fill="#000000" stroke="#000000" points="109.0278,-72.2696 99.2195,-68.2637 104.3889,-77.5118 109.0278,-72.2696"/>
</g>
<!-- 8 -->
<g id="node6" class="node">
<title>8</title>
<path fill="#8139e5" stroke="#000000" d="M240,-68C240,-68 151,-68 151,-68 145,-68 139,-62 139,-56 139,-56 139,-12 139,-12 139,-6 145,0 151,0 151,0 240,0 240,0 246,0 252,-6 252,-12 252,-12 252,-56 252,-56 252,-62 246,-68 240,-68"/>
<text text-anchor="start" x="167.5" y="-52.8" font-family="Helvetica,sans-Serif" font-size="14.00" fill="#000000">gini = 0.0</text>
<text text-anchor="start" x="158" y="-37.8" font-family="Helvetica,sans-Serif" font-size="14.00" fill="#000000">samples = 1</text>
<text text-anchor="start" x="148.5" y="-22.8" font-family="Helvetica,sans-Serif" font-size="14.00" fill="#000000">value = [0, 0, 1]</text>
<text text-anchor="start" x="147" y="-7.8" font-family="Helvetica,sans-Serif" font-size="14.00" fill="#000000">class = virginica</text>
</g>
<!-- 3&#45;&gt;8 -->
<g id="edge5" class="edge">
<title>3&#45;&gt;8</title>
<path fill="none" stroke="#000000" d="M189.8513,-103.9815C190.5263,-95.618 191.2384,-86.7965 191.9209,-78.3409"/>
<polygon fill="#000000" stroke="#000000" points="195.4183,-78.5129 192.7343,-68.2637 188.441,-77.9496 195.4183,-78.5129"/>
</g>
<!-- 5 -->
<g id="node8" class="node">
<title>5</title>
<path fill="#ffffff" stroke="#000000" d="M396,-68C396,-68 299,-68 299,-68 293,-68 287,-62 287,-56 287,-56 287,-12 287,-12 287,-6 293,0 299,0 299,0 396,0 396,0 402,0 408,-6 408,-12 408,-12 408,-56 408,-56 408,-62 402,-68 396,-68"/>
<text text-anchor="start" x="319.5" y="-52.8" font-family="Helvetica,sans-Serif" font-size="14.00" fill="#000000">gini = 0.5</text>
<text text-anchor="start" x="310" y="-37.8" font-family="Helvetica,sans-Serif" font-size="14.00" fill="#000000">samples = 8</text>
<text text-anchor="start" x="300.5" y="-22.8" font-family="Helvetica,sans-Serif" font-size="14.00" fill="#000000">value = [0, 4, 4]</text>
<text text-anchor="start" x="295" y="-7.8" font-family="Helvetica,sans-Serif" font-size="14.00" fill="#000000">class = versicolor</text>
</g>
<!-- 4&#45;&gt;5 -->
<g id="edge7" class="edge">
<title>4&#45;&gt;5</title>
<path fill="none" stroke="#000000" d="M352.5211,-103.9815C351.921,-95.618 351.2881,-86.7965 350.6814,-78.3409"/>
<polygon fill="#000000" stroke="#000000" points="354.1651,-77.9875 349.9584,-68.2637 347.1831,-78.4885 354.1651,-77.9875"/>
</g>
<!-- 6 -->
<g id="node9" class="node">
<title>6</title>
<path fill="#853fe6" stroke="#000000" d="M531,-68C531,-68 438,-68 438,-68 432,-68 426,-62 426,-56 426,-56 426,-12 426,-12 426,-6 432,0 438,0 438,0 531,0 531,0 537,0 543,-6 543,-12 543,-12 543,-56 543,-56 543,-62 537,-68 531,-68"/>
<text text-anchor="start" x="449" y="-52.8" font-family="Helvetica,sans-Serif" font-size="14.00" fill="#000000">gini = 0.059</text>
<text text-anchor="start" x="443.5" y="-37.8" font-family="Helvetica,sans-Serif" font-size="14.00" fill="#000000">samples = 33</text>
<text text-anchor="start" x="434" y="-22.8" font-family="Helvetica,sans-Serif" font-size="14.00" fill="#000000">value = [0, 1, 32]</text>
<text text-anchor="start" x="436" y="-7.8" font-family="Helvetica,sans-Serif" font-size="14.00" fill="#000000">class = virginica</text>
</g>
<!-- 4&#45;&gt;6 -->
<g id="edge8" class="edge">
<title>4&#45;&gt;6</title>
<path fill="none" stroke="#000000" d="M403.5348,-103.9815C414.487,-94.5151 426.1179,-84.462 437.0456,-75.0168"/>
<polygon fill="#000000" stroke="#000000" points="439.5818,-77.4509 444.8586,-68.2637 435.0043,-72.155 439.5818,-77.4509"/>
</g>
</g>
</svg>
