<?xml version="1.0" encoding="UTF-8" standalone="no"?>
<!DOCTYPE svg PUBLIC "-//W3C//DTD SVG 1.1//EN"
 "http://www.w3.org/Graphics/SVG/1.1/DTD/svg11.dtd">
<!-- Generated by graphviz version 2.40.1 (20161225.0304)
 -->
<!-- Title: Tree Pages: 1 -->
<svg width="752pt" height="790pt"
 viewBox="0.00 0.00 752.00 790.00" xmlns="http://www.w3.org/2000/svg" xmlns:xlink="http://www.w3.org/1999/xlink">
<g id="graph0" class="graph" transform="scale(1 1) rotate(0) translate(4 786)">
<title>Tree</title>
<polygon fill="#ffffff" stroke="transparent" points="-4,4 -4,-786 748,-786 748,4 -4,4"/>
<!-- 0 -->
<g id="node1" class="node">
<title>0</title>
<path fill="#ffffff" stroke="#000000" d="M258,-782C258,-782 135,-782 135,-782 129,-782 123,-776 123,-770 123,-770 123,-711 123,-711 123,-705 129,-699 135,-699 135,-699 258,-699 258,-699 264,-699 270,-705 270,-711 270,-711 270,-770 270,-770 270,-776 264,-782 258,-782"/>
<text text-anchor="start" x="131" y="-766.8" font-family="Helvetica,sans-Serif" font-size="14.00" fill="#000000">petal width (cm) ≤ 0.8</text>
<text text-anchor="start" x="161" y="-751.8" font-family="Helvetica,sans-Serif" font-size="14.00" fill="#000000">gini = 0.664</text>
<text text-anchor="start" x="151.5" y="-736.8" font-family="Helvetica,sans-Serif" font-size="14.00" fill="#000000">samples = 105</text>
<text text-anchor="start" x="138.5" y="-721.8" font-family="Helvetica,sans-Serif" font-size="14.00" fill="#000000">value = [31, 37, 37]</text>
<text text-anchor="start" x="144" y="-706.8" font-family="Helvetica,sans-Serif" font-size="14.00" fill="#000000">class = versicolor</text>
</g>
<!-- 1 -->
<g id="node2" class="node">
<title>1</title>
<path fill="#e58139" stroke="#000000" d="M165,-655.5C165,-655.5 72,-655.5 72,-655.5 66,-655.5 60,-649.5 60,-643.5 60,-643.5 60,-599.5 60,-599.5 60,-593.5 66,-587.5 72,-587.5 72,-587.5 165,-587.5 165,-587.5 171,-587.5 177,-593.5 177,-599.5 177,-599.5 177,-643.5 177,-643.5 177,-649.5 171,-655.5 165,-655.5"/>
<text text-anchor="start" x="90.5" y="-640.3" font-family="Helvetica,sans-Serif" font-size="14.00" fill="#000000">gini = 0.0</text>
<text text-anchor="start" x="77.5" y="-625.3" font-family="Helvetica,sans-Serif" font-size="14.00" fill="#000000">samples = 31</text>
<text text-anchor="start" x="68" y="-610.3" font-family="Helvetica,sans-Serif" font-size="14.00" fill="#000000">value = [31, 0, 0]</text>
<text text-anchor="start" x="75" y="-595.3" font-family="Helvetica,sans-Serif" font-size="14.00" fill="#000000">class = setosa</text>
</g>
<!-- 0&#45;&gt;1 -->
<g id="edge1" class="edge">
<title>0&#45;&gt;1</title>
<path fill="none" stroke="#000000" d="M169.2194,-698.8796C161.8677,-687.6636 153.9036,-675.5131 146.5126,-664.2372"/>
<polygon fill="#000000" stroke="#000000" points="149.4014,-662.2598 140.9921,-655.8149 143.5469,-666.0972 149.4014,-662.2598"/>
<text text-anchor="middle" x="135.8982" y="-676.5905" font-family="Helvetica,sans-Serif" font-size="14.00" fill="#000000">True</text>
</g>
<!-- 2 -->
<g id="node3" class="node">
<title>2</title>
<path fill="#ffffff" stroke="#000000" d="M343.5,-663C343.5,-663 207.5,-663 207.5,-663 201.5,-663 195.5,-657 195.5,-651 195.5,-651 195.5,-592 195.5,-592 195.5,-586 201.5,-580 207.5,-580 207.5,-580 343.5,-580 343.5,-580 349.5,-580 355.5,-586 355.5,-592 355.5,-592 355.5,-651 355.5,-651 355.5,-657 349.5,-663 343.5,-663"/>
<text text-anchor="start" x="203.5" y="-647.8" font-family="Helvetica,sans-Serif" font-size="14.00" fill="#000000">petal length (cm) ≤ 4.75</text>
<text text-anchor="start" x="247.5" y="-632.8" font-family="Helvetica,sans-Serif" font-size="14.00" fill="#000000">gini = 0.5</text>
<text text-anchor="start" x="234.5" y="-617.8" font-family="Helvetica,sans-Serif" font-size="14.00" fill="#000000">samples = 74</text>
<text text-anchor="start" x="221" y="-602.8" font-family="Helvetica,sans-Serif" font-size="14.00" fill="#000000">value = [0, 37, 37]</text>
<text text-anchor="start" x="223" y="-587.8" font-family="Helvetica,sans-Serif" font-size="14.00" fill="#000000">class = versicolor</text>
</g>
<!-- 0&#45;&gt;2 -->
<g id="edge2" class="edge">
<title>0&#45;&gt;2</title>
<path fill="none" stroke="#000000" d="M224.1304,-698.8796C229.93,-690.1434 236.1059,-680.8404 242.0908,-671.8253"/>
<polygon fill="#000000" stroke="#000000" points="245.1368,-673.5652 247.7517,-663.2981 239.3049,-669.6935 245.1368,-673.5652"/>
<text text-anchor="middle" x="252.7022" y="-684.103" font-family="Helvetica,sans-Serif" font-size="14.00" fill="#000000">False</text>
</g>
<!-- 3 -->
<g id="node4" class="node">
<title>3</title>
<path fill="#3fe685" stroke="#000000" d="M253,-544C253,-544 130,-544 130,-544 124,-544 118,-538 118,-532 118,-532 118,-473 118,-473 118,-467 124,-461 130,-461 130,-461 253,-461 253,-461 259,-461 265,-467 265,-473 265,-473 265,-532 265,-532 265,-538 259,-544 253,-544"/>
<text text-anchor="start" x="126" y="-528.8" font-family="Helvetica,sans-Serif" font-size="14.00" fill="#000000">petal width (cm) ≤ 1.6</text>
<text text-anchor="start" x="156" y="-513.8" font-family="Helvetica,sans-Serif" font-size="14.00" fill="#000000">gini = 0.059</text>
<text text-anchor="start" x="150.5" y="-498.8" font-family="Helvetica,sans-Serif" font-size="14.00" fill="#000000">samples = 33</text>
<text text-anchor="start" x="141" y="-483.8" font-family="Helvetica,sans-Serif" font-size="14.00" fill="#000000">value = [0, 32, 1]</text>
<text text-anchor="start" x="139" y="-468.8" font-family="Helvetica,sans-Serif" font-size="14.00" fill="#000000">class = versicolor</text>
</g>
<!-- 2&#45;&gt;3 -->
<g id="edge3" class="edge">
<title>2&#45;&gt;3</title>
<path fill="none" stroke="#000000" d="M246.1209,-579.8796C239.8906,-571.0534 233.2519,-561.6485 226.827,-552.5466"/>
<polygon fill="#000000" stroke="#000000" points="229.6308,-550.4494 221.0045,-544.2981 223.912,-554.4862 229.6308,-550.4494"/>
</g>
<!-- 6 -->
<g id="node7" class="node">
<title>6</title>
<path fill="#9254e9" stroke="#000000" d="M426,-544C426,-544 295,-544 295,-544 289,-544 283,-538 283,-532 283,-532 283,-473 283,-473 283,-467 289,-461 295,-461 295,-461 426,-461 426,-461 432,-461 438,-467 438,-473 438,-473 438,-532 438,-532 438,-538 432,-544 426,-544"/>
<text text-anchor="start" x="291" y="-528.8" font-family="Helvetica,sans-Serif" font-size="14.00" fill="#000000">petal width (cm) ≤ 1.75</text>
<text text-anchor="start" x="325" y="-513.8" font-family="Helvetica,sans-Serif" font-size="14.00" fill="#000000">gini = 0.214</text>
<text text-anchor="start" x="319.5" y="-498.8" font-family="Helvetica,sans-Serif" font-size="14.00" fill="#000000">samples = 41</text>
<text text-anchor="start" x="310" y="-483.8" font-family="Helvetica,sans-Serif" font-size="14.00" fill="#000000">value = [0, 5, 36]</text>
<text text-anchor="start" x="312" y="-468.8" font-family="Helvetica,sans-Serif" font-size="14.00" fill="#000000">class = virginica</text>
</g>
<!-- 2&#45;&gt;6 -->
<g id="edge6" class="edge">
<title>2&#45;&gt;6</title>
<path fill="none" stroke="#000000" d="M305.2289,-579.8796C311.5333,-571.0534 318.251,-561.6485 324.7524,-552.5466"/>
<polygon fill="#000000" stroke="#000000" points="327.6799,-554.4698 330.6442,-544.2981 321.9837,-550.4011 327.6799,-554.4698"/>
</g>
<!-- 4 -->
<g id="node5" class="node">
<title>4</title>
<path fill="#39e581" stroke="#000000" d="M109,-417.5C109,-417.5 12,-417.5 12,-417.5 6,-417.5 0,-411.5 0,-405.5 0,-405.5 0,-361.5 0,-361.5 0,-355.5 6,-349.5 12,-349.5 12,-349.5 109,-349.5 109,-349.5 115,-349.5 121,-355.5 121,-361.5 121,-361.5 121,-405.5 121,-405.5 121,-411.5 115,-417.5 109,-417.5"/>
<text text-anchor="start" x="32.5" y="-402.3" font-family="Helvetica,sans-Serif" font-size="14.00" fill="#000000">gini = 0.0</text>
<text text-anchor="start" x="19.5" y="-387.3" font-family="Helvetica,sans-Serif" font-size="14.00" fill="#000000">samples = 32</text>
<text text-anchor="start" x="10" y="-372.3" font-family="Helvetica,sans-Serif" font-size="14.00" fill="#000000">value = [0, 32, 0]</text>
<text text-anchor="start" x="8" y="-357.3" font-family="Helvetica,sans-Serif" font-size="14.00" fill="#000000">class = versicolor</text>
</g>
<!-- 3&#45;&gt;4 -->
<g id="edge4" class="edge">
<title>3&#45;&gt;4</title>
<path fill="none" stroke="#000000" d="M145.6826,-460.8796C132.7303,-449.1138 118.646,-436.3197 105.7286,-424.5855"/>
<polygon fill="#000000" stroke="#000000" points="108.0306,-421.9482 98.2753,-417.8149 103.3239,-427.1296 108.0306,-421.9482"/>
</g>
<!-- 5 -->
<g id="node6" class="node">
<title>5</title>
<path fill="#8139e5" stroke="#000000" d="M240,-417.5C240,-417.5 151,-417.5 151,-417.5 145,-417.5 139,-411.5 139,-405.5 139,-405.5 139,-361.5 139,-361.5 139,-355.5 145,-349.5 151,-349.5 151,-349.5 240,-349.5 240,-349.5 246,-349.5 252,-355.5 252,-361.5 252,-361.5 252,-405.5 252,-405.5 252,-411.5 246,-417.5 240,-417.5"/>
<text text-anchor="start" x="167.5" y="-402.3" font-family="Helvetica,sans-Serif" font-size="14.00" fill="#000000">gini = 0.0</text>
<text text-anchor="start" x="158" y="-387.3" font-family="Helvetica,sans-Serif" font-size="14.00" fill="#000000">samples = 1</text>
<text text-anchor="start" x="148.5" y="-372.3" font-family="Helvetica,sans-Serif" font-size="14.00" fill="#000000">value = [0, 0, 1]</text>
<text text-anchor="start" x="147" y="-357.3" font-family="Helvetica,sans-Serif" font-size="14.00" fill="#000000">class = virginica</text>
</g>
<!-- 3&#45;&gt;5 -->
<g id="edge5" class="edge">
<title>3&#45;&gt;5</title>
<path fill="none" stroke="#000000" d="M192.899,-460.8796C193.2575,-450.2134 193.6445,-438.7021 194.0075,-427.9015"/>
<polygon fill="#000000" stroke="#000000" points="197.5085,-427.9269 194.3466,-417.8149 190.5125,-427.6917 197.5085,-427.9269"/>
</g>
<!-- 7 -->
<g id="node8" class="node">
<title>7</title>
<path fill="#ffffff" stroke="#000000" d="M425.5,-425C425.5,-425 289.5,-425 289.5,-425 283.5,-425 277.5,-419 277.5,-413 277.5,-413 277.5,-354 277.5,-354 277.5,-348 283.5,-342 289.5,-342 289.5,-342 425.5,-342 425.5,-342 431.5,-342 437.5,-348 437.5,-354 437.5,-354 437.5,-413 437.5,-413 437.5,-419 431.5,-425 425.5,-425"/>
<text text-anchor="start" x="285.5" y="-409.8" font-family="Helvetica,sans-Serif" font-size="14.00" fill="#000000">petal length (cm) ≤ 4.95</text>
<text text-anchor="start" x="329.5" y="-394.8" font-family="Helvetica,sans-Serif" font-size="14.00" fill="#000000">gini = 0.5</text>
<text text-anchor="start" x="320" y="-379.8" font-family="Helvetica,sans-Serif" font-size="14.00" fill="#000000">samples = 8</text>
<text text-anchor="start" x="310.5" y="-364.8" font-family="Helvetica,sans-Serif" font-size="14.00" fill="#000000">value = [0, 4, 4]</text>
<text text-anchor="start" x="305" y="-349.8" font-family="Helvetica,sans-Serif" font-size="14.00" fill="#000000">class = versicolor</text>
</g>
<!-- 6&#45;&gt;7 -->
<g id="edge7" class="edge">
<title>6&#45;&gt;7</title>
<path fill="none" stroke="#000000" d="M359.4507,-460.8796C359.2441,-452.6838 359.0249,-443.9891 358.811,-435.5013"/>
<polygon fill="#000000" stroke="#000000" points="362.3047,-435.2067 358.5537,-425.2981 355.307,-435.3831 362.3047,-435.2067"/>
</g>
<!-- 14 -->
<g id="node15" class="node">
<title>14</title>
<path fill="#853fe6" stroke="#000000" d="M603.5,-425C603.5,-425 467.5,-425 467.5,-425 461.5,-425 455.5,-419 455.5,-413 455.5,-413 455.5,-354 455.5,-354 455.5,-348 461.5,-342 467.5,-342 467.5,-342 603.5,-342 603.5,-342 609.5,-342 615.5,-348 615.5,-354 615.5,-354 615.5,-413 615.5,-413 615.5,-419 609.5,-425 603.5,-425"/>
<text text-anchor="start" x="463.5" y="-409.8" font-family="Helvetica,sans-Serif" font-size="14.00" fill="#000000">petal length (cm) ≤ 4.85</text>
<text text-anchor="start" x="500" y="-394.8" font-family="Helvetica,sans-Serif" font-size="14.00" fill="#000000">gini = 0.059</text>
<text text-anchor="start" x="494.5" y="-379.8" font-family="Helvetica,sans-Serif" font-size="14.00" fill="#000000">samples = 33</text>
<text text-anchor="start" x="485" y="-364.8" font-family="Helvetica,sans-Serif" font-size="14.00" fill="#000000">value = [0, 1, 32]</text>
<text text-anchor="start" x="487" y="-349.8" font-family="Helvetica,sans-Serif" font-size="14.00" fill="#000000">class = virginica</text>
</g>
<!-- 6&#45;&gt;14 -->
<g id="edge14" class="edge">
<title>6&#45;&gt;14</title>
<path fill="none" stroke="#000000" d="M421.7065,-460.8796C435.9606,-451.1868 451.241,-440.7961 465.8307,-430.8752"/>
<polygon fill="#000000" stroke="#000000" points="468.0269,-433.6143 474.3281,-425.0969 464.0907,-427.8258 468.0269,-433.6143"/>
</g>
<!-- 8 -->
<g id="node9" class="node">
<title>8</title>
<path fill="#39e581" stroke="#000000" d="M253,-298.5C253,-298.5 156,-298.5 156,-298.5 150,-298.5 144,-292.5 144,-286.5 144,-286.5 144,-242.5 144,-242.5 144,-236.5 150,-230.5 156,-230.5 156,-230.5 253,-230.5 253,-230.5 259,-230.5 265,-236.5 265,-242.5 265,-242.5 265,-286.5 265,-286.5 265,-292.5 259,-298.5 253,-298.5"/>
<text text-anchor="start" x="176.5" y="-283.3" font-family="Helvetica,sans-Serif" font-size="14.00" fill="#000000">gini = 0.0</text>
<text text-anchor="start" x="167" y="-268.3" font-family="Helvetica,sans-Serif" font-size="14.00" fill="#000000">samples = 2</text>
<text text-anchor="start" x="157.5" y="-253.3" font-family="Helvetica,sans-Serif" font-size="14.00" fill="#000000">value = [0, 2, 0]</text>
<text text-anchor="start" x="152" y="-238.3" font-family="Helvetica,sans-Serif" font-size="14.00" fill="#000000">class = versicolor</text>
</g>
<!-- 7&#45;&gt;8 -->
<g id="edge8" class="edge">
<title>7&#45;&gt;8</title>
<path fill="none" stroke="#000000" d="M303.988,-341.8796C288.7192,-330.0038 272.1034,-317.0804 256.9016,-305.2568"/>
<polygon fill="#000000" stroke="#000000" points="258.6616,-302.1916 248.6192,-298.8149 254.3639,-307.7171 258.6616,-302.1916"/>
</g>
<!-- 9 -->
<g id="node10" class="node">
<title>9</title>
<path fill="#c09cf2" stroke="#000000" d="M426,-306C426,-306 295,-306 295,-306 289,-306 283,-300 283,-294 283,-294 283,-235 283,-235 283,-229 289,-223 295,-223 295,-223 426,-223 426,-223 432,-223 438,-229 438,-235 438,-235 438,-294 438,-294 438,-300 432,-306 426,-306"/>
<text text-anchor="start" x="291" y="-290.8" font-family="Helvetica,sans-Serif" font-size="14.00" fill="#000000">petal width (cm) ≤ 1.55</text>
<text text-anchor="start" x="325" y="-275.8" font-family="Helvetica,sans-Serif" font-size="14.00" fill="#000000">gini = 0.444</text>
<text text-anchor="start" x="323" y="-260.8" font-family="Helvetica,sans-Serif" font-size="14.00" fill="#000000">samples = 6</text>
<text text-anchor="start" x="313.5" y="-245.8" font-family="Helvetica,sans-Serif" font-size="14.00" fill="#000000">value = [0, 2, 4]</text>
<text text-anchor="start" x="312" y="-230.8" font-family="Helvetica,sans-Serif" font-size="14.00" fill="#000000">class = virginica</text>
</g>
<!-- 7&#45;&gt;9 -->
<g id="edge9" class="edge">
<title>7&#45;&gt;9</title>
<path fill="none" stroke="#000000" d="M358.5493,-341.8796C358.7559,-333.6838 358.9751,-324.9891 359.189,-316.5013"/>
<polygon fill="#000000" stroke="#000000" points="362.693,-316.3831 359.4463,-306.2981 355.6953,-316.2067 362.693,-316.3831"/>
</g>
<!-- 10 -->
<g id="node11" class="node">
<title>10</title>
<path fill="#8139e5" stroke="#000000" d="M254,-179.5C254,-179.5 165,-179.5 165,-179.5 159,-179.5 153,-173.5 153,-167.5 153,-167.5 153,-123.5 153,-123.5 153,-117.5 159,-111.5 165,-111.5 165,-111.5 254,-111.5 254,-111.5 260,-111.5 266,-117.5 266,-123.5 266,-123.5 266,-167.5 266,-167.5 266,-173.5 260,-179.5 254,-179.5"/>
<text text-anchor="start" x="181.5" y="-164.3" font-family="Helvetica,sans-Serif" font-size="14.00" fill="#000000">gini = 0.0</text>
<text text-anchor="start" x="172" y="-149.3" font-family="Helvetica,sans-Serif" font-size="14.00" fill="#000000">samples = 3</text>
<text text-anchor="start" x="162.5" y="-134.3" font-family="Helvetica,sans-Serif" font-size="14.00" fill="#000000">value = [0, 0, 3]</text>
<text text-anchor="start" x="161" y="-119.3" font-family="Helvetica,sans-Serif" font-size="14.00" fill="#000000">class = virginica</text>
</g>
<!-- 9&#45;&gt;10 -->
<g id="edge10" class="edge">
<title>9&#45;&gt;10</title>
<path fill="none" stroke="#000000" d="M307.6875,-222.8796C292.6183,-211.0038 276.2197,-198.0804 261.2166,-186.2568"/>
<polygon fill="#000000" stroke="#000000" points="263.0631,-183.2557 253.0425,-179.8149 258.7302,-188.7536 263.0631,-183.2557"/>
</g>
<!-- 11 -->
<g id="node12" class="node">
<title>11</title>
<path fill="#9cf2c0" stroke="#000000" d="M432.5,-187C432.5,-187 296.5,-187 296.5,-187 290.5,-187 284.5,-181 284.5,-175 284.5,-175 284.5,-116 284.5,-116 284.5,-110 290.5,-104 296.5,-104 296.5,-104 432.5,-104 432.5,-104 438.5,-104 444.5,-110 444.5,-116 444.5,-116 444.5,-175 444.5,-175 444.5,-181 438.5,-187 432.5,-187"/>
<text text-anchor="start" x="292.5" y="-171.8" font-family="Helvetica,sans-Serif" font-size="14.00" fill="#000000">petal length (cm) ≤ 5.45</text>
<text text-anchor="start" x="329" y="-156.8" font-family="Helvetica,sans-Serif" font-size="14.00" fill="#000000">gini = 0.444</text>
<text text-anchor="start" x="327" y="-141.8" font-family="Helvetica,sans-Serif" font-size="14.00" fill="#000000">samples = 3</text>
<text text-anchor="start" x="317.5" y="-126.8" font-family="Helvetica,sans-Serif" font-size="14.00" fill="#000000">value = [0, 2, 1]</text>
<text text-anchor="start" x="312" y="-111.8" font-family="Helvetica,sans-Serif" font-size="14.00" fill="#000000">class = versicolor</text>
</g>
<!-- 9&#45;&gt;11 -->
<g id="edge11" class="edge">
<title>9&#45;&gt;11</title>
<path fill="none" stroke="#000000" d="M361.899,-222.8796C362.1745,-214.6838 362.4668,-205.9891 362.7521,-197.5013"/>
<polygon fill="#000000" stroke="#000000" points="366.257,-197.41 363.095,-187.2981 359.261,-197.1748 366.257,-197.41"/>
</g>
<!-- 12 -->
<g id="node13" class="node">
<title>12</title>
<path fill="#39e581" stroke="#000000" d="M346,-68C346,-68 249,-68 249,-68 243,-68 237,-62 237,-56 237,-56 237,-12 237,-12 237,-6 243,0 249,0 249,0 346,0 346,0 352,0 358,-6 358,-12 358,-12 358,-56 358,-56 358,-62 352,-68 346,-68"/>
<text text-anchor="start" x="269.5" y="-52.8" font-family="Helvetica,sans-Serif" font-size="14.00" fill="#000000">gini = 0.0</text>
<text text-anchor="start" x="260" y="-37.8" font-family="Helvetica,sans-Serif" font-size="14.00" fill="#000000">samples = 2</text>
<text text-anchor="start" x="250.5" y="-22.8" font-family="Helvetica,sans-Serif" font-size="14.00" fill="#000000">value = [0, 2, 0]</text>
<text text-anchor="start" x="245" y="-7.8" font-family="Helvetica,sans-Serif" font-size="14.00" fill="#000000">class = versicolor</text>
</g>
<!-- 11&#45;&gt;12 -->
<g id="edge12" class="edge">
<title>11&#45;&gt;12</title>
<path fill="none" stroke="#000000" d="M339.5517,-103.9815C334.2499,-95.1585 328.6419,-85.8258 323.3089,-76.9506"/>
<polygon fill="#000000" stroke="#000000" points="326.2396,-75.0325 318.0889,-68.2637 320.2395,-78.638 326.2396,-75.0325"/>
</g>
<!-- 13 -->
<g id="node14" class="node">
<title>13</title>
<path fill="#8139e5" stroke="#000000" d="M477,-68C477,-68 388,-68 388,-68 382,-68 376,-62 376,-56 376,-56 376,-12 376,-12 376,-6 382,0 388,0 388,0 477,0 477,0 483,0 489,-6 489,-12 489,-12 489,-56 489,-56 489,-62 483,-68 477,-68"/>
<text text-anchor="start" x="404.5" y="-52.8" font-family="Helvetica,sans-Serif" font-size="14.00" fill="#000000">gini = 0.0</text>
<text text-anchor="start" x="395" y="-37.8" font-family="Helvetica,sans-Serif" font-size="14.00" fill="#000000">samples = 1</text>
<text text-anchor="start" x="385.5" y="-22.8" font-family="Helvetica,sans-Serif" font-size="14.00" fill="#000000">value = [0, 0, 1]</text>
<text text-anchor="start" x="384" y="-7.8" font-family="Helvetica,sans-Serif" font-size="14.00" fill="#000000">class = virginica</text>
</g>
<!-- 11&#45;&gt;13 -->
<g id="edge13" class="edge">
<title>11&#45;&gt;13</title>
<path fill="none" stroke="#000000" d="M389.8207,-103.9815C395.2016,-95.1585 400.8932,-85.8258 406.3059,-76.9506"/>
<polygon fill="#000000" stroke="#000000" points="409.3851,-78.6236 411.6038,-68.2637 403.4088,-74.9789 409.3851,-78.6236"/>
</g>
<!-- 15 -->
<g id="node16" class="node">
<title>15</title>
<path fill="#c09cf2" stroke="#000000" d="M596.5,-306C596.5,-306 470.5,-306 470.5,-306 464.5,-306 458.5,-300 458.5,-294 458.5,-294 458.5,-235 458.5,-235 458.5,-229 464.5,-223 470.5,-223 470.5,-223 596.5,-223 596.5,-223 602.5,-223 608.5,-229 608.5,-235 608.5,-235 608.5,-294 608.5,-294 608.5,-300 602.5,-306 596.5,-306"/>
<text text-anchor="start" x="466.5" y="-290.8" font-family="Helvetica,sans-Serif" font-size="14.00" fill="#000000">sepal width (cm) ≤ 3.1</text>
<text text-anchor="start" x="498" y="-275.8" font-family="Helvetica,sans-Serif" font-size="14.00" fill="#000000">gini = 0.444</text>
<text text-anchor="start" x="496" y="-260.8" font-family="Helvetica,sans-Serif" font-size="14.00" fill="#000000">samples = 3</text>
<text text-anchor="start" x="486.5" y="-245.8" font-family="Helvetica,sans-Serif" font-size="14.00" fill="#000000">value = [0, 1, 2]</text>
<text text-anchor="start" x="485" y="-230.8" font-family="Helvetica,sans-Serif" font-size="14.00" fill="#000000">class = virginica</text>
</g>
<!-- 14&#45;&gt;15 -->
<g id="edge15" class="edge">
<title>14&#45;&gt;15</title>
<path fill="none" stroke="#000000" d="M534.8005,-341.8796C534.6628,-333.6838 534.5166,-324.9891 534.374,-316.5013"/>
<polygon fill="#000000" stroke="#000000" points="537.8701,-316.2378 534.2025,-306.2981 530.8711,-316.3555 537.8701,-316.2378"/>
</g>
<!-- 18 -->
<g id="node19" class="node">
<title>18</title>
<path fill="#8139e5" stroke="#000000" d="M732,-298.5C732,-298.5 639,-298.5 639,-298.5 633,-298.5 627,-292.5 627,-286.5 627,-286.5 627,-242.5 627,-242.5 627,-236.5 633,-230.5 639,-230.5 639,-230.5 732,-230.5 732,-230.5 738,-230.5 744,-236.5 744,-242.5 744,-242.5 744,-286.5 744,-286.5 744,-292.5 738,-298.5 732,-298.5"/>
<text text-anchor="start" x="657.5" y="-283.3" font-family="Helvetica,sans-Serif" font-size="14.00" fill="#000000">gini = 0.0</text>
<text text-anchor="start" x="644.5" y="-268.3" font-family="Helvetica,sans-Serif" font-size="14.00" fill="#000000">samples = 30</text>
<text text-anchor="start" x="635" y="-253.3" font-family="Helvetica,sans-Serif" font-size="14.00" fill="#000000">value = [0, 0, 30]</text>
<text text-anchor="start" x="637" y="-238.3" font-family="Helvetica,sans-Serif" font-size="14.00" fill="#000000">class = virginica</text>
</g>
<!-- 14&#45;&gt;18 -->
<g id="edge18" class="edge">
<title>14&#45;&gt;18</title>
<path fill="none" stroke="#000000" d="M587.9627,-341.8796C602.9322,-330.0038 619.2222,-317.0804 634.1259,-305.2568"/>
<polygon fill="#000000" stroke="#000000" points="636.587,-307.772 642.2459,-298.8149 632.2365,-302.2881 636.587,-307.772"/>
</g>
<!-- 16 -->
<g id="node17" class="node">
<title>16</title>
<path fill="#8139e5" stroke="#000000" d="M575,-179.5C575,-179.5 486,-179.5 486,-179.5 480,-179.5 474,-173.5 474,-167.5 474,-167.5 474,-123.5 474,-123.5 474,-117.5 480,-111.5 486,-111.5 486,-111.5 575,-111.5 575,-111.5 581,-111.5 587,-117.5 587,-123.5 587,-123.5 587,-167.5 587,-167.5 587,-173.5 581,-179.5 575,-179.5"/>
<text text-anchor="start" x="502.5" y="-164.3" font-family="Helvetica,sans-Serif" font-size="14.00" fill="#000000">gini = 0.0</text>
<text text-anchor="start" x="493" y="-149.3" font-family="Helvetica,sans-Serif" font-size="14.00" fill="#000000">samples = 2</text>
<text text-anchor="start" x="483.5" y="-134.3" font-family="Helvetica,sans-Serif" font-size="14.00" fill="#000000">value = [0, 0, 2]</text>
<text text-anchor="start" x="482" y="-119.3" font-family="Helvetica,sans-Serif" font-size="14.00" fill="#000000">class = virginica</text>
</g>
<!-- 15&#45;&gt;16 -->
<g id="edge16" class="edge">
<title>15&#45;&gt;16</title>
<path fill="none" stroke="#000000" d="M532.4507,-222.8796C532.1818,-212.2134 531.8916,-200.7021 531.6194,-189.9015"/>
<polygon fill="#000000" stroke="#000000" points="535.1161,-189.7235 531.3651,-179.8149 528.1183,-189.9 535.1161,-189.7235"/>
</g>
<!-- 17 -->
<g id="node18" class="node">
<title>17</title>
<path fill="#39e581" stroke="#000000" d="M714,-179.5C714,-179.5 617,-179.5 617,-179.5 611,-179.5 605,-173.5 605,-167.5 605,-167.5 605,-123.5 605,-123.5 605,-117.5 611,-111.5 617,-111.5 617,-111.5 714,-111.5 714,-111.5 720,-111.5 726,-117.5 726,-123.5 726,-123.5 726,-167.5 726,-167.5 726,-173.5 720,-179.5 714,-179.5"/>
<text text-anchor="start" x="637.5" y="-164.3" font-family="Helvetica,sans-Serif" font-size="14.00" fill="#000000">gini = 0.0</text>
<text text-anchor="start" x="628" y="-149.3" font-family="Helvetica,sans-Serif" font-size="14.00" fill="#000000">samples = 1</text>
<text text-anchor="start" x="618.5" y="-134.3" font-family="Helvetica,sans-Serif" font-size="14.00" fill="#000000">value = [0, 1, 0]</text>
<text text-anchor="start" x="613" y="-119.3" font-family="Helvetica,sans-Serif" font-size="14.00" fill="#000000">class = versicolor</text>
</g>
<!-- 15&#45;&gt;17 -->
<g id="edge17" class="edge">
<title>15&#45;&gt;17</title>
<path fill="none" stroke="#000000" d="M579.6672,-222.8796C592.7183,-211.1138 606.9101,-198.3197 619.9261,-186.5855"/>
<polygon fill="#000000" stroke="#000000" points="622.3526,-189.1104 627.4364,-179.8149 617.6654,-183.9113 622.3526,-189.1104"/>
</g>
</g>
</svg>
