<?xml version="1.0" encoding="UTF-8" standalone="no"?>
<!DOCTYPE svg PUBLIC "-//W3C//DTD SVG 1.1//EN"
 "http://www.w3.org/Graphics/SVG/1.1/DTD/svg11.dtd">
<!-- Generated by graphviz version 2.40.1 (20161225.0304)
 -->
<!-- Title: Tree Pages: 1 -->
<svg width="549pt" height="552pt"
 viewBox="0.00 0.00 549.00 552.00" xmlns="http://www.w3.org/2000/svg" xmlns:xlink="http://www.w3.org/1999/xlink">
<g id="graph0" class="graph" transform="scale(1 1) rotate(0) translate(4 548)">
<title>Tree</title>
<polygon fill="#ffffff" stroke="transparent" points="-4,4 -4,-548 545,-548 545,4 -4,4"/>
<!-- 0 -->
<g id="node1" class="node">
<title>0</title>
<path fill="#ffffff" stroke="#000000" d="M338.5,-544C338.5,-544 202.5,-544 202.5,-544 196.5,-544 190.5,-538 190.5,-532 190.5,-532 190.5,-473 190.5,-473 190.5,-467 196.5,-461 202.5,-461 202.5,-461 338.5,-461 338.5,-461 344.5,-461 350.5,-467 350.5,-473 350.5,-473 350.5,-532 350.5,-532 350.5,-538 344.5,-544 338.5,-544"/>
<text text-anchor="start" x="198.5" y="-528.8" font-family="Helvetica,sans-Serif" font-size="14.00" fill="#000000">petal length (cm) ≤ 2.45</text>
<text text-anchor="start" x="235" y="-513.8" font-family="Helvetica,sans-Serif" font-size="14.00" fill="#000000">gini = 0.664</text>
<text text-anchor="start" x="225.5" y="-498.8" font-family="Helvetica,sans-Serif" font-size="14.00" fill="#000000">samples = 105</text>
<text text-anchor="start" x="212.5" y="-483.8" font-family="Helvetica,sans-Serif" font-size="14.00" fill="#000000">value = [31, 37, 37]</text>
<text text-anchor="start" x="218" y="-468.8" font-family="Helvetica,sans-Serif" font-size="14.00" fill="#000000">class = versicolor</text>
</g>
<!-- 1 -->
<g id="node2" class="node">
<title>1</title>
<path fill="#e58139" stroke="#000000" d="M240,-417.5C240,-417.5 147,-417.5 147,-417.5 141,-417.5 135,-411.5 135,-405.5 135,-405.5 135,-361.5 135,-361.5 135,-355.5 141,-349.5 147,-349.5 147,-349.5 240,-349.5 240,-349.5 246,-349.5 252,-355.5 252,-361.5 252,-361.5 252,-405.5 252,-405.5 252,-411.5 246,-417.5 240,-417.5"/>
<text text-anchor="start" x="165.5" y="-402.3" font-family="Helvetica,sans-Serif" font-size="14.00" fill="#000000">gini = 0.0</text>
<text text-anchor="start" x="152.5" y="-387.3" font-family="Helvetica,sans-Serif" font-size="14.00" fill="#000000">samples = 31</text>
<text text-anchor="start" x="143" y="-372.3" font-family="Helvetica,sans-Serif" font-size="14.00" fill="#000000">value = [31, 0, 0]</text>
<text text-anchor="start" x="150" y="-357.3" font-family="Helvetica,sans-Serif" font-size="14.00" fill="#000000">class = setosa</text>
</g>
<!-- 0&#45;&gt;1 -->
<g id="edge1" class="edge">
<title>0&#45;&gt;1</title>
<path fill="none" stroke="#000000" d="M243.5691,-460.8796C236.3117,-449.6636 228.4497,-437.5131 221.1535,-426.2372"/>
<polygon fill="#000000" stroke="#000000" points="224.0748,-424.3093 215.7038,-417.8149 218.1978,-428.112 224.0748,-424.3093"/>
<text text-anchor="middle" x="210.4656" y="-438.56" font-family="Helvetica,sans-Serif" font-size="14.00" fill="#000000">True</text>
</g>
<!-- 2 -->
<g id="node3" class="node">
<title>2</title>
<path fill="#ffffff" stroke="#000000" d="M413,-425C413,-425 282,-425 282,-425 276,-425 270,-419 270,-413 270,-413 270,-354 270,-354 270,-348 276,-342 282,-342 282,-342 413,-342 413,-342 419,-342 425,-348 425,-354 425,-354 425,-413 425,-413 425,-419 419,-425 413,-425"/>
<text text-anchor="start" x="278" y="-409.8" font-family="Helvetica,sans-Serif" font-size="14.00" fill="#000000">petal width (cm) ≤ 1.75</text>
<text text-anchor="start" x="319.5" y="-394.8" font-family="Helvetica,sans-Serif" font-size="14.00" fill="#000000">gini = 0.5</text>
<text text-anchor="start" x="306.5" y="-379.8" font-family="Helvetica,sans-Serif" font-size="14.00" fill="#000000">samples = 74</text>
<text text-anchor="start" x="293" y="-364.8" font-family="Helvetica,sans-Serif" font-size="14.00" fill="#000000">value = [0, 37, 37]</text>
<text text-anchor="start" x="295" y="-349.8" font-family="Helvetica,sans-Serif" font-size="14.00" fill="#000000">class = versicolor</text>
</g>
<!-- 0&#45;&gt;2 -->
<g id="edge2" class="edge">
<title>0&#45;&gt;2</title>
<path fill="none" stroke="#000000" d="M297.4309,-460.8796C303.0837,-452.1434 309.1033,-442.8404 314.9366,-433.8253"/>
<polygon fill="#000000" stroke="#000000" points="317.9601,-435.5952 320.4542,-425.2981 312.0831,-431.7924 317.9601,-435.5952"/>
<text text-anchor="middle" x="325.6924" y="-446.0431" font-family="Helvetica,sans-Serif" font-size="14.00" fill="#000000">False</text>
</g>
<!-- 3 -->
<g id="node4" class="node">
<title>3</title>
<path fill="#54e992" stroke="#000000" d="M337.5,-306C337.5,-306 201.5,-306 201.5,-306 195.5,-306 189.5,-300 189.5,-294 189.5,-294 189.5,-235 189.5,-235 189.5,-229 195.5,-223 201.5,-223 201.5,-223 337.5,-223 337.5,-223 343.5,-223 349.5,-229 349.5,-235 349.5,-235 349.5,-294 349.5,-294 349.5,-300 343.5,-306 337.5,-306"/>
<text text-anchor="start" x="197.5" y="-290.8" font-family="Helvetica,sans-Serif" font-size="14.00" fill="#000000">petal length (cm) ≤ 4.95</text>
<text text-anchor="start" x="234" y="-275.8" font-family="Helvetica,sans-Serif" font-size="14.00" fill="#000000">gini = 0.214</text>
<text text-anchor="start" x="228.5" y="-260.8" font-family="Helvetica,sans-Serif" font-size="14.00" fill="#000000">samples = 41</text>
<text text-anchor="start" x="219" y="-245.8" font-family="Helvetica,sans-Serif" font-size="14.00" fill="#000000">value = [0, 36, 5]</text>
<text text-anchor="start" x="217" y="-230.8" font-family="Helvetica,sans-Serif" font-size="14.00" fill="#000000">class = versicolor</text>
</g>
<!-- 2&#45;&gt;3 -->
<g id="edge3" class="edge">
<title>2&#45;&gt;3</title>
<path fill="none" stroke="#000000" d="M320.2194,-341.8796C314.4932,-333.1434 308.3954,-323.8404 302.4863,-314.8253"/>
<polygon fill="#000000" stroke="#000000" points="305.3063,-312.7429 296.8971,-306.2981 299.4518,-316.5803 305.3063,-312.7429"/>
</g>
<!-- 4 -->
<g id="node11" class="node">
<title>4</title>
<path fill="#853fe6" stroke="#000000" d="M473,-298.5C473,-298.5 380,-298.5 380,-298.5 374,-298.5 368,-292.5 368,-286.5 368,-286.5 368,-242.5 368,-242.5 368,-236.5 374,-230.5 380,-230.5 380,-230.5 473,-230.5 473,-230.5 479,-230.5 485,-236.5 485,-242.5 485,-242.5 485,-286.5 485,-286.5 485,-292.5 479,-298.5 473,-298.5"/>
<text text-anchor="start" x="391" y="-283.3" font-family="Helvetica,sans-Serif" font-size="14.00" fill="#000000">gini = 0.059</text>
<text text-anchor="start" x="385.5" y="-268.3" font-family="Helvetica,sans-Serif" font-size="14.00" fill="#000000">samples = 33</text>
<text text-anchor="start" x="376" y="-253.3" font-family="Helvetica,sans-Serif" font-size="14.00" fill="#000000">value = [0, 1, 32]</text>
<text text-anchor="start" x="378" y="-238.3" font-family="Helvetica,sans-Serif" font-size="14.00" fill="#000000">class = virginica</text>
</g>
<!-- 2&#45;&gt;4 -->
<g id="edge10" class="edge">
<title>2&#45;&gt;4</title>
<path fill="none" stroke="#000000" d="M375.1304,-341.8796C382.5763,-330.6636 390.6425,-318.5131 398.1282,-307.2372"/>
<polygon fill="#000000" stroke="#000000" points="401.1046,-309.082 403.7195,-298.8149 395.2727,-305.2104 401.1046,-309.082"/>
</g>
<!-- 5 -->
<g id="node5" class="node">
<title>5</title>
<path fill="#3fe685" stroke="#000000" d="M247,-187C247,-187 124,-187 124,-187 118,-187 112,-181 112,-175 112,-175 112,-116 112,-116 112,-110 118,-104 124,-104 124,-104 247,-104 247,-104 253,-104 259,-110 259,-116 259,-116 259,-175 259,-175 259,-181 253,-187 247,-187"/>
<text text-anchor="start" x="120" y="-171.8" font-family="Helvetica,sans-Serif" font-size="14.00" fill="#000000">petal width (cm) ≤ 1.6</text>
<text text-anchor="start" x="150" y="-156.8" font-family="Helvetica,sans-Serif" font-size="14.00" fill="#000000">gini = 0.056</text>
<text text-anchor="start" x="144.5" y="-141.8" font-family="Helvetica,sans-Serif" font-size="14.00" fill="#000000">samples = 35</text>
<text text-anchor="start" x="135" y="-126.8" font-family="Helvetica,sans-Serif" font-size="14.00" fill="#000000">value = [0, 34, 1]</text>
<text text-anchor="start" x="133" y="-111.8" font-family="Helvetica,sans-Serif" font-size="14.00" fill="#000000">class = versicolor</text>
</g>
<!-- 3&#45;&gt;5 -->
<g id="edge4" class="edge">
<title>3&#45;&gt;5</title>
<path fill="none" stroke="#000000" d="M240.1209,-222.8796C233.8906,-214.0534 227.2519,-204.6485 220.827,-195.5466"/>
<polygon fill="#000000" stroke="#000000" points="223.6308,-193.4494 215.0045,-187.2981 217.912,-197.4862 223.6308,-193.4494"/>
</g>
<!-- 6 -->
<g id="node8" class="node">
<title>6</title>
<path fill="#c09cf2" stroke="#000000" d="M420,-187C420,-187 289,-187 289,-187 283,-187 277,-181 277,-175 277,-175 277,-116 277,-116 277,-110 283,-104 289,-104 289,-104 420,-104 420,-104 426,-104 432,-110 432,-116 432,-116 432,-175 432,-175 432,-181 426,-187 420,-187"/>
<text text-anchor="start" x="285" y="-171.8" font-family="Helvetica,sans-Serif" font-size="14.00" fill="#000000">petal width (cm) ≤ 1.55</text>
<text text-anchor="start" x="319" y="-156.8" font-family="Helvetica,sans-Serif" font-size="14.00" fill="#000000">gini = 0.444</text>
<text text-anchor="start" x="317" y="-141.8" font-family="Helvetica,sans-Serif" font-size="14.00" fill="#000000">samples = 6</text>
<text text-anchor="start" x="307.5" y="-126.8" font-family="Helvetica,sans-Serif" font-size="14.00" fill="#000000">value = [0, 2, 4]</text>
<text text-anchor="start" x="306" y="-111.8" font-family="Helvetica,sans-Serif" font-size="14.00" fill="#000000">class = virginica</text>
</g>
<!-- 3&#45;&gt;6 -->
<g id="edge7" class="edge">
<title>3&#45;&gt;6</title>
<path fill="none" stroke="#000000" d="M299.2289,-222.8796C305.5333,-214.0534 312.251,-204.6485 318.7524,-195.5466"/>
<polygon fill="#000000" stroke="#000000" points="321.6799,-197.4698 324.6442,-187.2981 315.9837,-193.4011 321.6799,-197.4698"/>
</g>
<!-- 7 -->
<g id="node6" class="node">
<title>7</title>
<path fill="#39e581" stroke="#000000" d="M109,-68C109,-68 12,-68 12,-68 6,-68 0,-62 0,-56 0,-56 0,-12 0,-12 0,-6 6,0 12,0 12,0 109,0 109,0 115,0 121,-6 121,-12 121,-12 121,-56 121,-56 121,-62 115,-68 109,-68"/>
<text text-anchor="start" x="32.5" y="-52.8" font-family="Helvetica,sans-Serif" font-size="14.00" fill="#000000">gini = 0.0</text>
<text text-anchor="start" x="19.5" y="-37.8" font-family="Helvetica,sans-Serif" font-size="14.00" fill="#000000">samples = 34</text>
<text text-anchor="start" x="10" y="-22.8" font-family="Helvetica,sans-Serif" font-size="14.00" fill="#000000">value = [0, 34, 0]</text>
<text text-anchor="start" x="8" y="-7.8" font-family="Helvetica,sans-Serif" font-size="14.00" fill="#000000">class = versicolor</text>
</g>
<!-- 5&#45;&gt;7 -->
<g id="edge5" class="edge">
<title>5&#45;&gt;7</title>
<path fill="none" stroke="#000000" d="M138.9546,-103.9815C128.3421,-94.5151 117.0718,-84.462 106.4829,-75.0168"/>
<polygon fill="#000000" stroke="#000000" points="108.7046,-72.3084 98.9122,-68.2637 104.0449,-77.5322 108.7046,-72.3084"/>
</g>
<!-- 8 -->
<g id="node7" class="node">
<title>8</title>
<path fill="#8139e5" stroke="#000000" d="M240,-68C240,-68 151,-68 151,-68 145,-68 139,-62 139,-56 139,-56 139,-12 139,-12 139,-6 145,0 151,0 151,0 240,0 240,0 246,0 252,-6 252,-12 252,-12 252,-56 252,-56 252,-62 246,-68 240,-68"/>
<text text-anchor="start" x="167.5" y="-52.8" font-family="Helvetica,sans-Serif" font-size="14.00" fill="#000000">gini = 0.0</text>
<text text-anchor="start" x="158" y="-37.8" font-family="Helvetica,sans-Serif" font-size="14.00" fill="#000000">samples = 1</text>
<text text-anchor="start" x="148.5" y="-22.8" font-family="Helvetica,sans-Serif" font-size="14.00" fill="#000000">value = [0, 0, 1]</text>
<text text-anchor="start" x="147" y="-7.8" font-family="Helvetica,sans-Serif" font-size="14.00" fill="#000000">class = virginica</text>
</g>
<!-- 5&#45;&gt;8 -->
<g id="edge6" class="edge">
<title>5&#45;&gt;8</title>
<path fill="none" stroke="#000000" d="M189.2236,-103.9815C189.9737,-95.618 190.7649,-86.7965 191.5232,-78.3409"/>
<polygon fill="#000000" stroke="#000000" points="195.0197,-78.5364 192.427,-68.2637 188.0477,-77.911 195.0197,-78.5364"/>
</g>
<!-- 9 -->
<g id="node9" class="node">
<title>9</title>
<path fill="#8139e5" stroke="#000000" d="M390,-68C390,-68 301,-68 301,-68 295,-68 289,-62 289,-56 289,-56 289,-12 289,-12 289,-6 295,0 301,0 301,0 390,0 390,0 396,0 402,-6 402,-12 402,-12 402,-56 402,-56 402,-62 396,-68 390,-68"/>
<text text-anchor="start" x="317.5" y="-52.8" font-family="Helvetica,sans-Serif" font-size="14.00" fill="#000000">gini = 0.0</text>
<text text-anchor="start" x="308" y="-37.8" font-family="Helvetica,sans-Serif" font-size="14.00" fill="#000000">samples = 3</text>
<text text-anchor="start" x="298.5" y="-22.8" font-family="Helvetica,sans-Serif" font-size="14.00" fill="#000000">value = [0, 0, 3]</text>
<text text-anchor="start" x="297" y="-7.8" font-family="Helvetica,sans-Serif" font-size="14.00" fill="#000000">class = virginica</text>
</g>
<!-- 6&#45;&gt;9 -->
<g id="edge8" class="edge">
<title>6&#45;&gt;9</title>
<path fill="none" stroke="#000000" d="M351.1487,-103.9815C350.4737,-95.618 349.7616,-86.7965 349.0791,-78.3409"/>
<polygon fill="#000000" stroke="#000000" points="352.559,-77.9496 348.2657,-68.2637 345.5817,-78.5129 352.559,-77.9496"/>
</g>
<!-- 10 -->
<g id="node10" class="node">
<title>10</title>
<path fill="#9cf2c0" stroke="#000000" d="M529,-68C529,-68 432,-68 432,-68 426,-68 420,-62 420,-56 420,-56 420,-12 420,-12 420,-6 426,0 432,0 432,0 529,0 529,0 535,0 541,-6 541,-12 541,-12 541,-56 541,-56 541,-62 535,-68 529,-68"/>
<text text-anchor="start" x="445" y="-52.8" font-family="Helvetica,sans-Serif" font-size="14.00" fill="#000000">gini = 0.444</text>
<text text-anchor="start" x="443" y="-37.8" font-family="Helvetica,sans-Serif" font-size="14.00" fill="#000000">samples = 3</text>
<text text-anchor="start" x="433.5" y="-22.8" font-family="Helvetica,sans-Serif" font-size="14.00" fill="#000000">value = [0, 2, 1]</text>
<text text-anchor="start" x="428" y="-7.8" font-family="Helvetica,sans-Serif" font-size="14.00" fill="#000000">class = versicolor</text>
</g>
<!-- 6&#45;&gt;10 -->
<g id="edge9" class="edge">
<title>6&#45;&gt;10</title>
<path fill="none" stroke="#000000" d="M401.4177,-103.9815C412.1152,-94.5151 423.4756,-84.462 434.1492,-75.0168"/>
<polygon fill="#000000" stroke="#000000" points="436.6111,-77.5118 441.7805,-68.2637 431.9722,-72.2696 436.6111,-77.5118"/>
</g>
</g>
</svg>
