<?xml version="1.0" encoding="UTF-8" standalone="no"?>
<!DOCTYPE svg PUBLIC "-//W3C//DTD SVG 1.1//EN"
 "http://www.w3.org/Graphics/SVG/1.1/DTD/svg11.dtd">
<!-- Generated by graphviz version 2.40.1 (20161225.0304)
 -->
<!-- Title: Tree Pages: 1 -->
<svg width="719pt" height="671pt"
 viewBox="0.00 0.00 719.00 671.00" xmlns="http://www.w3.org/2000/svg" xmlns:xlink="http://www.w3.org/1999/xlink">
<g id="graph0" class="graph" transform="scale(1 1) rotate(0) translate(4 667)">
<title>Tree</title>
<polygon fill="#ffffff" stroke="transparent" points="-4,4 -4,-667 715,-667 715,4 -4,4"/>
<!-- 0 -->
<g id="node1" class="node">
<title>0</title>
<path fill="#ffffff" stroke="#000000" d="M421,-663C421,-663 298,-663 298,-663 292,-663 286,-657 286,-651 286,-651 286,-592 286,-592 286,-586 292,-580 298,-580 298,-580 421,-580 421,-580 427,-580 433,-586 433,-592 433,-592 433,-651 433,-651 433,-657 427,-663 421,-663"/>
<text text-anchor="start" x="294" y="-647.8" font-family="Helvetica,sans-Serif" font-size="14.00" fill="#000000">petal width (cm) ≤ 0.8</text>
<text text-anchor="start" x="324" y="-632.8" font-family="Helvetica,sans-Serif" font-size="14.00" fill="#000000">gini = 0.664</text>
<text text-anchor="start" x="314.5" y="-617.8" font-family="Helvetica,sans-Serif" font-size="14.00" fill="#000000">samples = 105</text>
<text text-anchor="start" x="301.5" y="-602.8" font-family="Helvetica,sans-Serif" font-size="14.00" fill="#000000">value = [31, 37, 37]</text>
<text text-anchor="start" x="307" y="-587.8" font-family="Helvetica,sans-Serif" font-size="14.00" fill="#000000">class = versicolor</text>
</g>
<!-- 1 -->
<g id="node2" class="node">
<title>1</title>
<path fill="#e58139" stroke="#000000" d="M329,-536.5C329,-536.5 236,-536.5 236,-536.5 230,-536.5 224,-530.5 224,-524.5 224,-524.5 224,-480.5 224,-480.5 224,-474.5 230,-468.5 236,-468.5 236,-468.5 329,-468.5 329,-468.5 335,-468.5 341,-474.5 341,-480.5 341,-480.5 341,-524.5 341,-524.5 341,-530.5 335,-536.5 329,-536.5"/>
<text text-anchor="start" x="254.5" y="-521.3" font-family="Helvetica,sans-Serif" font-size="14.00" fill="#000000">gini = 0.0</text>
<text text-anchor="start" x="241.5" y="-506.3" font-family="Helvetica,sans-Serif" font-size="14.00" fill="#000000">samples = 31</text>
<text text-anchor="start" x="232" y="-491.3" font-family="Helvetica,sans-Serif" font-size="14.00" fill="#000000">value = [31, 0, 0]</text>
<text text-anchor="start" x="239" y="-476.3" font-family="Helvetica,sans-Serif" font-size="14.00" fill="#000000">class = setosa</text>
</g>
<!-- 0&#45;&gt;1 -->
<g id="edge1" class="edge">
<title>0&#45;&gt;1</title>
<path fill="none" stroke="#000000" d="M332.5691,-579.8796C325.3117,-568.6636 317.4497,-556.5131 310.1535,-545.2372"/>
<polygon fill="#000000" stroke="#000000" points="313.0748,-543.3093 304.7038,-536.8149 307.1978,-547.112 313.0748,-543.3093"/>
<text text-anchor="middle" x="299.4656" y="-557.56" font-family="Helvetica,sans-Serif" font-size="14.00" fill="#000000">True</text>
</g>
<!-- 2 -->
<g id="node3" class="node">
<title>2</title>
<path fill="#ffffff" stroke="#000000" d="M502,-544C502,-544 371,-544 371,-544 365,-544 359,-538 359,-532 359,-532 359,-473 359,-473 359,-467 365,-461 371,-461 371,-461 502,-461 502,-461 508,-461 514,-467 514,-473 514,-473 514,-532 514,-532 514,-538 508,-544 502,-544"/>
<text text-anchor="start" x="367" y="-528.8" font-family="Helvetica,sans-Serif" font-size="14.00" fill="#000000">petal width (cm) ≤ 1.75</text>
<text text-anchor="start" x="408.5" y="-513.8" font-family="Helvetica,sans-Serif" font-size="14.00" fill="#000000">gini = 0.5</text>
<text text-anchor="start" x="395.5" y="-498.8" font-family="Helvetica,sans-Serif" font-size="14.00" fill="#000000">samples = 74</text>
<text text-anchor="start" x="382" y="-483.8" font-family="Helvetica,sans-Serif" font-size="14.00" fill="#000000">value = [0, 37, 37]</text>
<text text-anchor="start" x="384" y="-468.8" font-family="Helvetica,sans-Serif" font-size="14.00" fill="#000000">class = versicolor</text>
</g>
<!-- 0&#45;&gt;2 -->
<g id="edge2" class="edge">
<title>0&#45;&gt;2</title>
<path fill="none" stroke="#000000" d="M386.4309,-579.8796C392.0837,-571.1434 398.1033,-561.8404 403.9366,-552.8253"/>
<polygon fill="#000000" stroke="#000000" points="406.9601,-554.5952 409.4542,-544.2981 401.0831,-550.7924 406.9601,-554.5952"/>
<text text-anchor="middle" x="414.6924" y="-565.0431" font-family="Helvetica,sans-Serif" font-size="14.00" fill="#000000">False</text>
</g>
<!-- 3 -->
<g id="node4" class="node">
<title>3</title>
<path fill="#54e992" stroke="#000000" d="M415.5,-425C415.5,-425 279.5,-425 279.5,-425 273.5,-425 267.5,-419 267.5,-413 267.5,-413 267.5,-354 267.5,-354 267.5,-348 273.5,-342 279.5,-342 279.5,-342 415.5,-342 415.5,-342 421.5,-342 427.5,-348 427.5,-354 427.5,-354 427.5,-413 427.5,-413 427.5,-419 421.5,-425 415.5,-425"/>
<text text-anchor="start" x="275.5" y="-409.8" font-family="Helvetica,sans-Serif" font-size="14.00" fill="#000000">petal length (cm) ≤ 4.95</text>
<text text-anchor="start" x="312" y="-394.8" font-family="Helvetica,sans-Serif" font-size="14.00" fill="#000000">gini = 0.214</text>
<text text-anchor="start" x="306.5" y="-379.8" font-family="Helvetica,sans-Serif" font-size="14.00" fill="#000000">samples = 41</text>
<text text-anchor="start" x="297" y="-364.8" font-family="Helvetica,sans-Serif" font-size="14.00" fill="#000000">value = [0, 36, 5]</text>
<text text-anchor="start" x="295" y="-349.8" font-family="Helvetica,sans-Serif" font-size="14.00" fill="#000000">class = versicolor</text>
</g>
<!-- 2&#45;&gt;3 -->
<g id="edge3" class="edge">
<title>2&#45;&gt;3</title>
<path fill="none" stroke="#000000" d="M405.3721,-460.8796C398.771,-452.0534 391.7371,-442.6485 384.9298,-433.5466"/>
<polygon fill="#000000" stroke="#000000" points="387.5528,-431.2099 378.7607,-425.2981 381.9472,-435.4024 387.5528,-431.2099"/>
</g>
<!-- 4 -->
<g id="node13" class="node">
<title>4</title>
<path fill="#853fe6" stroke="#000000" d="M593.5,-425C593.5,-425 457.5,-425 457.5,-425 451.5,-425 445.5,-419 445.5,-413 445.5,-413 445.5,-354 445.5,-354 445.5,-348 451.5,-342 457.5,-342 457.5,-342 593.5,-342 593.5,-342 599.5,-342 605.5,-348 605.5,-354 605.5,-354 605.5,-413 605.5,-413 605.5,-419 599.5,-425 593.5,-425"/>
<text text-anchor="start" x="453.5" y="-409.8" font-family="Helvetica,sans-Serif" font-size="14.00" fill="#000000">petal length (cm) ≤ 4.85</text>
<text text-anchor="start" x="490" y="-394.8" font-family="Helvetica,sans-Serif" font-size="14.00" fill="#000000">gini = 0.059</text>
<text text-anchor="start" x="484.5" y="-379.8" font-family="Helvetica,sans-Serif" font-size="14.00" fill="#000000">samples = 33</text>
<text text-anchor="start" x="475" y="-364.8" font-family="Helvetica,sans-Serif" font-size="14.00" fill="#000000">value = [0, 1, 32]</text>
<text text-anchor="start" x="477" y="-349.8" font-family="Helvetica,sans-Serif" font-size="14.00" fill="#000000">class = virginica</text>
</g>
<!-- 2&#45;&gt;4 -->
<g id="edge12" class="edge">
<title>2&#45;&gt;4</title>
<path fill="none" stroke="#000000" d="M467.6279,-460.8796C474.229,-452.0534 481.2629,-442.6485 488.0702,-433.5466"/>
<polygon fill="#000000" stroke="#000000" points="491.0528,-435.4024 494.2393,-425.2981 485.4472,-431.2099 491.0528,-435.4024"/>
</g>
<!-- 5 -->
<g id="node5" class="node">
<title>5</title>
<path fill="#3fe685" stroke="#000000" d="M247,-306C247,-306 124,-306 124,-306 118,-306 112,-300 112,-294 112,-294 112,-235 112,-235 112,-229 118,-223 124,-223 124,-223 247,-223 247,-223 253,-223 259,-229 259,-235 259,-235 259,-294 259,-294 259,-300 253,-306 247,-306"/>
<text text-anchor="start" x="120" y="-290.8" font-family="Helvetica,sans-Serif" font-size="14.00" fill="#000000">petal width (cm) ≤ 1.6</text>
<text text-anchor="start" x="150" y="-275.8" font-family="Helvetica,sans-Serif" font-size="14.00" fill="#000000">gini = 0.056</text>
<text text-anchor="start" x="144.5" y="-260.8" font-family="Helvetica,sans-Serif" font-size="14.00" fill="#000000">samples = 35</text>
<text text-anchor="start" x="135" y="-245.8" font-family="Helvetica,sans-Serif" font-size="14.00" fill="#000000">value = [0, 34, 1]</text>
<text text-anchor="start" x="133" y="-230.8" font-family="Helvetica,sans-Serif" font-size="14.00" fill="#000000">class = versicolor</text>
</g>
<!-- 3&#45;&gt;5 -->
<g id="edge4" class="edge">
<title>3&#45;&gt;5</title>
<path fill="none" stroke="#000000" d="M290.8403,-341.8796C277.7684,-332.2774 263.7641,-321.9903 250.3727,-312.1534"/>
<polygon fill="#000000" stroke="#000000" points="252.2591,-309.1963 242.1277,-306.0969 248.115,-314.8378 252.2591,-309.1963"/>
</g>
<!-- 6 -->
<g id="node8" class="node">
<title>6</title>
<path fill="#c09cf2" stroke="#000000" d="M420,-306C420,-306 289,-306 289,-306 283,-306 277,-300 277,-294 277,-294 277,-235 277,-235 277,-229 283,-223 289,-223 289,-223 420,-223 420,-223 426,-223 432,-229 432,-235 432,-235 432,-294 432,-294 432,-300 426,-306 420,-306"/>
<text text-anchor="start" x="285" y="-290.8" font-family="Helvetica,sans-Serif" font-size="14.00" fill="#000000">petal width (cm) ≤ 1.55</text>
<text text-anchor="start" x="319" y="-275.8" font-family="Helvetica,sans-Serif" font-size="14.00" fill="#000000">gini = 0.444</text>
<text text-anchor="start" x="317" y="-260.8" font-family="Helvetica,sans-Serif" font-size="14.00" fill="#000000">samples = 6</text>
<text text-anchor="start" x="307.5" y="-245.8" font-family="Helvetica,sans-Serif" font-size="14.00" fill="#000000">value = [0, 2, 4]</text>
<text text-anchor="start" x="306" y="-230.8" font-family="Helvetica,sans-Serif" font-size="14.00" fill="#000000">class = virginica</text>
</g>
<!-- 3&#45;&gt;6 -->
<g id="edge7" class="edge">
<title>3&#45;&gt;6</title>
<path fill="none" stroke="#000000" d="M349.9483,-341.8796C350.4304,-333.6838 350.9418,-324.9891 351.4411,-316.5013"/>
<polygon fill="#000000" stroke="#000000" points="354.9479,-316.4864 352.0413,-306.2981 347.96,-316.0753 354.9479,-316.4864"/>
</g>
<!-- 7 -->
<g id="node6" class="node">
<title>7</title>
<path fill="#39e581" stroke="#000000" d="M109,-179.5C109,-179.5 12,-179.5 12,-179.5 6,-179.5 0,-173.5 0,-167.5 0,-167.5 0,-123.5 0,-123.5 0,-117.5 6,-111.5 12,-111.5 12,-111.5 109,-111.5 109,-111.5 115,-111.5 121,-117.5 121,-123.5 121,-123.5 121,-167.5 121,-167.5 121,-173.5 115,-179.5 109,-179.5"/>
<text text-anchor="start" x="32.5" y="-164.3" font-family="Helvetica,sans-Serif" font-size="14.00" fill="#000000">gini = 0.0</text>
<text text-anchor="start" x="19.5" y="-149.3" font-family="Helvetica,sans-Serif" font-size="14.00" fill="#000000">samples = 34</text>
<text text-anchor="start" x="10" y="-134.3" font-family="Helvetica,sans-Serif" font-size="14.00" fill="#000000">value = [0, 34, 0]</text>
<text text-anchor="start" x="8" y="-119.3" font-family="Helvetica,sans-Serif" font-size="14.00" fill="#000000">class = versicolor</text>
</g>
<!-- 5&#45;&gt;7 -->
<g id="edge5" class="edge">
<title>5&#45;&gt;7</title>
<path fill="none" stroke="#000000" d="M141.7811,-222.8796C129.5375,-211.2237 116.2339,-198.5587 104.0029,-186.9148"/>
<polygon fill="#000000" stroke="#000000" points="106.2012,-184.1751 96.5451,-179.8149 101.3746,-189.245 106.2012,-184.1751"/>
</g>
<!-- 8 -->
<g id="node7" class="node">
<title>8</title>
<path fill="#8139e5" stroke="#000000" d="M240,-179.5C240,-179.5 151,-179.5 151,-179.5 145,-179.5 139,-173.5 139,-167.5 139,-167.5 139,-123.5 139,-123.5 139,-117.5 145,-111.5 151,-111.5 151,-111.5 240,-111.5 240,-111.5 246,-111.5 252,-117.5 252,-123.5 252,-123.5 252,-167.5 252,-167.5 252,-173.5 246,-179.5 240,-179.5"/>
<text text-anchor="start" x="167.5" y="-164.3" font-family="Helvetica,sans-Serif" font-size="14.00" fill="#000000">gini = 0.0</text>
<text text-anchor="start" x="158" y="-149.3" font-family="Helvetica,sans-Serif" font-size="14.00" fill="#000000">samples = 1</text>
<text text-anchor="start" x="148.5" y="-134.3" font-family="Helvetica,sans-Serif" font-size="14.00" fill="#000000">value = [0, 0, 1]</text>
<text text-anchor="start" x="147" y="-119.3" font-family="Helvetica,sans-Serif" font-size="14.00" fill="#000000">class = virginica</text>
</g>
<!-- 5&#45;&gt;8 -->
<g id="edge6" class="edge">
<title>5&#45;&gt;8</title>
<path fill="none" stroke="#000000" d="M188.9975,-222.8796C189.8938,-212.2134 190.8612,-200.7021 191.7688,-189.9015"/>
<polygon fill="#000000" stroke="#000000" points="195.2666,-190.0729 192.6164,-179.8149 188.2912,-189.4867 195.2666,-190.0729"/>
</g>
<!-- 9 -->
<g id="node9" class="node">
<title>9</title>
<path fill="#8139e5" stroke="#000000" d="M390,-179.5C390,-179.5 301,-179.5 301,-179.5 295,-179.5 289,-173.5 289,-167.5 289,-167.5 289,-123.5 289,-123.5 289,-117.5 295,-111.5 301,-111.5 301,-111.5 390,-111.5 390,-111.5 396,-111.5 402,-117.5 402,-123.5 402,-123.5 402,-167.5 402,-167.5 402,-173.5 396,-179.5 390,-179.5"/>
<text text-anchor="start" x="317.5" y="-164.3" font-family="Helvetica,sans-Serif" font-size="14.00" fill="#000000">gini = 0.0</text>
<text text-anchor="start" x="308" y="-149.3" font-family="Helvetica,sans-Serif" font-size="14.00" fill="#000000">samples = 3</text>
<text text-anchor="start" x="298.5" y="-134.3" font-family="Helvetica,sans-Serif" font-size="14.00" fill="#000000">value = [0, 0, 3]</text>
<text text-anchor="start" x="297" y="-119.3" font-family="Helvetica,sans-Serif" font-size="14.00" fill="#000000">class = virginica</text>
</g>
<!-- 6&#45;&gt;9 -->
<g id="edge8" class="edge">
<title>6&#45;&gt;9</title>
<path fill="none" stroke="#000000" d="M351.3522,-222.8796C350.5455,-212.2134 349.6749,-200.7021 348.8581,-189.9015"/>
<polygon fill="#000000" stroke="#000000" points="352.3395,-189.5225 348.0952,-179.8149 345.3595,-190.0504 352.3395,-189.5225"/>
</g>
<!-- 10 -->
<g id="node10" class="node">
<title>10</title>
<path fill="#9cf2c0" stroke="#000000" d="M568.5,-187C568.5,-187 432.5,-187 432.5,-187 426.5,-187 420.5,-181 420.5,-175 420.5,-175 420.5,-116 420.5,-116 420.5,-110 426.5,-104 432.5,-104 432.5,-104 568.5,-104 568.5,-104 574.5,-104 580.5,-110 580.5,-116 580.5,-116 580.5,-175 580.5,-175 580.5,-181 574.5,-187 568.5,-187"/>
<text text-anchor="start" x="428.5" y="-171.8" font-family="Helvetica,sans-Serif" font-size="14.00" fill="#000000">petal length (cm) ≤ 5.45</text>
<text text-anchor="start" x="465" y="-156.8" font-family="Helvetica,sans-Serif" font-size="14.00" fill="#000000">gini = 0.444</text>
<text text-anchor="start" x="463" y="-141.8" font-family="Helvetica,sans-Serif" font-size="14.00" fill="#000000">samples = 3</text>
<text text-anchor="start" x="453.5" y="-126.8" font-family="Helvetica,sans-Serif" font-size="14.00" fill="#000000">value = [0, 2, 1]</text>
<text text-anchor="start" x="448" y="-111.8" font-family="Helvetica,sans-Serif" font-size="14.00" fill="#000000">class = versicolor</text>
</g>
<!-- 6&#45;&gt;10 -->
<g id="edge9" class="edge">
<title>6&#45;&gt;10</title>
<path fill="none" stroke="#000000" d="M405.5637,-222.8796C417.0555,-213.513 429.3468,-203.4948 441.145,-193.8784"/>
<polygon fill="#000000" stroke="#000000" points="443.6782,-196.329 449.2183,-187.2981 439.2556,-190.903 443.6782,-196.329"/>
</g>
<!-- 11 -->
<g id="node11" class="node">
<title>11</title>
<path fill="#39e581" stroke="#000000" d="M481,-68C481,-68 384,-68 384,-68 378,-68 372,-62 372,-56 372,-56 372,-12 372,-12 372,-6 378,0 384,0 384,0 481,0 481,0 487,0 493,-6 493,-12 493,-12 493,-56 493,-56 493,-62 487,-68 481,-68"/>
<text text-anchor="start" x="404.5" y="-52.8" font-family="Helvetica,sans-Serif" font-size="14.00" fill="#000000">gini = 0.0</text>
<text text-anchor="start" x="395" y="-37.8" font-family="Helvetica,sans-Serif" font-size="14.00" fill="#000000">samples = 2</text>
<text text-anchor="start" x="385.5" y="-22.8" font-family="Helvetica,sans-Serif" font-size="14.00" fill="#000000">value = [0, 2, 0]</text>
<text text-anchor="start" x="380" y="-7.8" font-family="Helvetica,sans-Serif" font-size="14.00" fill="#000000">class = versicolor</text>
</g>
<!-- 10&#45;&gt;11 -->
<g id="edge10" class="edge">
<title>10&#45;&gt;11</title>
<path fill="none" stroke="#000000" d="M475.1793,-103.9815C469.7984,-95.1585 464.1068,-85.8258 458.6941,-76.9506"/>
<polygon fill="#000000" stroke="#000000" points="461.5912,-74.9789 453.3962,-68.2637 455.6149,-78.6236 461.5912,-74.9789"/>
</g>
<!-- 12 -->
<g id="node12" class="node">
<title>12</title>
<path fill="#8139e5" stroke="#000000" d="M612,-68C612,-68 523,-68 523,-68 517,-68 511,-62 511,-56 511,-56 511,-12 511,-12 511,-6 517,0 523,0 523,0 612,0 612,0 618,0 624,-6 624,-12 624,-12 624,-56 624,-56 624,-62 618,-68 612,-68"/>
<text text-anchor="start" x="539.5" y="-52.8" font-family="Helvetica,sans-Serif" font-size="14.00" fill="#000000">gini = 0.0</text>
<text text-anchor="start" x="530" y="-37.8" font-family="Helvetica,sans-Serif" font-size="14.00" fill="#000000">samples = 1</text>
<text text-anchor="start" x="520.5" y="-22.8" font-family="Helvetica,sans-Serif" font-size="14.00" fill="#000000">value = [0, 0, 1]</text>
<text text-anchor="start" x="519" y="-7.8" font-family="Helvetica,sans-Serif" font-size="14.00" fill="#000000">class = virginica</text>
</g>
<!-- 10&#45;&gt;12 -->
<g id="edge11" class="edge">
<title>10&#45;&gt;12</title>
<path fill="none" stroke="#000000" d="M525.4483,-103.9815C530.7501,-95.1585 536.3581,-85.8258 541.6911,-76.9506"/>
<polygon fill="#000000" stroke="#000000" points="544.7605,-78.638 546.9111,-68.2637 538.7604,-75.0325 544.7605,-78.638"/>
</g>
<!-- 13 -->
<g id="node14" class="node">
<title>13</title>
<path fill="#c09cf2" stroke="#000000" d="M564,-298.5C564,-298.5 475,-298.5 475,-298.5 469,-298.5 463,-292.5 463,-286.5 463,-286.5 463,-242.5 463,-242.5 463,-236.5 469,-230.5 475,-230.5 475,-230.5 564,-230.5 564,-230.5 570,-230.5 576,-236.5 576,-242.5 576,-242.5 576,-286.5 576,-286.5 576,-292.5 570,-298.5 564,-298.5"/>
<text text-anchor="start" x="484" y="-283.3" font-family="Helvetica,sans-Serif" font-size="14.00" fill="#000000">gini = 0.444</text>
<text text-anchor="start" x="482" y="-268.3" font-family="Helvetica,sans-Serif" font-size="14.00" fill="#000000">samples = 3</text>
<text text-anchor="start" x="472.5" y="-253.3" font-family="Helvetica,sans-Serif" font-size="14.00" fill="#000000">value = [0, 1, 2]</text>
<text text-anchor="start" x="471" y="-238.3" font-family="Helvetica,sans-Serif" font-size="14.00" fill="#000000">class = virginica</text>
</g>
<!-- 4&#45;&gt;13 -->
<g id="edge13" class="edge">
<title>4&#45;&gt;13</title>
<path fill="none" stroke="#000000" d="M523.4015,-341.8796C522.8637,-331.2134 522.2833,-319.7021 521.7387,-308.9015"/>
<polygon fill="#000000" stroke="#000000" points="525.2294,-308.626 521.2302,-298.8149 518.2383,-308.9785 525.2294,-308.626"/>
</g>
<!-- 14 -->
<g id="node15" class="node">
<title>14</title>
<path fill="#8139e5" stroke="#000000" d="M699,-298.5C699,-298.5 606,-298.5 606,-298.5 600,-298.5 594,-292.5 594,-286.5 594,-286.5 594,-242.5 594,-242.5 594,-236.5 600,-230.5 606,-230.5 606,-230.5 699,-230.5 699,-230.5 705,-230.5 711,-236.5 711,-242.5 711,-242.5 711,-286.5 711,-286.5 711,-292.5 705,-298.5 699,-298.5"/>
<text text-anchor="start" x="624.5" y="-283.3" font-family="Helvetica,sans-Serif" font-size="14.00" fill="#000000">gini = 0.0</text>
<text text-anchor="start" x="611.5" y="-268.3" font-family="Helvetica,sans-Serif" font-size="14.00" fill="#000000">samples = 30</text>
<text text-anchor="start" x="602" y="-253.3" font-family="Helvetica,sans-Serif" font-size="14.00" fill="#000000">value = [0, 0, 30]</text>
<text text-anchor="start" x="604" y="-238.3" font-family="Helvetica,sans-Serif" font-size="14.00" fill="#000000">class = virginica</text>
</g>
<!-- 4&#45;&gt;14 -->
<g id="edge14" class="edge">
<title>4&#45;&gt;14</title>
<path fill="none" stroke="#000000" d="M569.9184,-341.8796C582.3579,-330.2237 595.8743,-317.5587 608.301,-305.9148"/>
<polygon fill="#000000" stroke="#000000" points="610.9741,-308.2065 615.8782,-298.8149 606.1879,-303.0985 610.9741,-308.2065"/>
</g>
</g>
</svg>
