<?xml version="1.0" encoding="UTF-8" standalone="no"?>
<!DOCTYPE svg PUBLIC "-//W3C//DTD SVG 1.1//EN"
 "http://www.w3.org/Graphics/SVG/1.1/DTD/svg11.dtd">
<!-- Generated by graphviz version 2.40.1 (20161225.0304)
 -->
<!-- Title: Tree Pages: 1 -->
<svg width="728pt" height="790pt"
 viewBox="0.00 0.00 728.00 790.00" xmlns="http://www.w3.org/2000/svg" xmlns:xlink="http://www.w3.org/1999/xlink">
<g id="graph0" class="graph" transform="scale(1 1) rotate(0) translate(4 786)">
<title>Tree</title>
<polygon fill="#ffffff" stroke="transparent" points="-4,4 -4,-786 724,-786 724,4 -4,4"/>
<!-- 0 -->
<g id="node1" class="node">
<title>0</title>
<path fill="#ffffff" stroke="#000000" d="M258,-782C258,-782 135,-782 135,-782 129,-782 123,-776 123,-770 123,-770 123,-711 123,-711 123,-705 129,-699 135,-699 135,-699 258,-699 258,-699 264,-699 270,-705 270,-711 270,-711 270,-770 270,-770 270,-776 264,-782 258,-782"/>
<text text-anchor="start" x="131" y="-766.8" font-family="Helvetica,sans-Serif" font-size="14.00" fill="#000000">petal width (cm) ≤ 0.8</text>
<text text-anchor="start" x="161" y="-751.8" font-family="Helvetica,sans-Serif" font-size="14.00" fill="#000000">gini = 0.664</text>
<text text-anchor="start" x="151.5" y="-736.8" font-family="Helvetica,sans-Serif" font-size="14.00" fill="#000000">samples = 105</text>
<text text-anchor="start" x="138.5" y="-721.8" font-family="Helvetica,sans-Serif" font-size="14.00" fill="#000000">value = [31, 37, 37]</text>
<text text-anchor="start" x="144" y="-706.8" font-family="Helvetica,sans-Serif" font-size="14.00" fill="#000000">class = versicolor</text>
</g>
<!-- 1 -->
<g id="node2" class="node">
<title>1</title>
<path fill="#e58139" stroke="#000000" d="M165,-655.5C165,-655.5 72,-655.5 72,-655.5 66,-655.5 60,-649.5 60,-643.5 60,-643.5 60,-599.5 60,-599.5 60,-593.5 66,-587.5 72,-587.5 72,-587.5 165,-587.5 165,-587.5 171,-587.5 177,-593.5 177,-599.5 177,-599.5 177,-643.5 177,-643.5 177,-649.5 171,-655.5 165,-655.5"/>
<text text-anchor="start" x="90.5" y="-640.3" font-family="Helvetica,sans-Serif" font-size="14.00" fill="#000000">gini = 0.0</text>
<text text-anchor="start" x="77.5" y="-625.3" font-family="Helvetica,sans-Serif" font-size="14.00" fill="#000000">samples = 31</text>
<text text-anchor="start" x="68" y="-610.3" font-family="Helvetica,sans-Serif" font-size="14.00" fill="#000000">value = [31, 0, 0]</text>
<text text-anchor="start" x="75" y="-595.3" font-family="Helvetica,sans-Serif" font-size="14.00" fill="#000000">class = setosa</text>
</g>
<!-- 0&#45;&gt;1 -->
<g id="edge1" class="edge">
<title>0&#45;&gt;1</title>
<path fill="none" stroke="#000000" d="M169.2194,-698.8796C161.8677,-687.6636 153.9036,-675.5131 146.5126,-664.2372"/>
<polygon fill="#000000" stroke="#000000" points="149.4014,-662.2598 140.9921,-655.8149 143.5469,-666.0972 149.4014,-662.2598"/>
<text text-anchor="middle" x="135.8982" y="-676.5905" font-family="Helvetica,sans-Serif" font-size="14.00" fill="#000000">True</text>
</g>
<!-- 2 -->
<g id="node3" class="node">
<title>2</title>
<path fill="#ffffff" stroke="#000000" d="M343.5,-663C343.5,-663 207.5,-663 207.5,-663 201.5,-663 195.5,-657 195.5,-651 195.5,-651 195.5,-592 195.5,-592 195.5,-586 201.5,-580 207.5,-580 207.5,-580 343.5,-580 343.5,-580 349.5,-580 355.5,-586 355.5,-592 355.5,-592 355.5,-651 355.5,-651 355.5,-657 349.5,-663 343.5,-663"/>
<text text-anchor="start" x="203.5" y="-647.8" font-family="Helvetica,sans-Serif" font-size="14.00" fill="#000000">petal length (cm) ≤ 4.75</text>
<text text-anchor="start" x="247.5" y="-632.8" font-family="Helvetica,sans-Serif" font-size="14.00" fill="#000000">gini = 0.5</text>
<text text-anchor="start" x="234.5" y="-617.8" font-family="Helvetica,sans-Serif" font-size="14.00" fill="#000000">samples = 74</text>
<text text-anchor="start" x="221" y="-602.8" font-family="Helvetica,sans-Serif" font-size="14.00" fill="#000000">value = [0, 37, 37]</text>
<text text-anchor="start" x="223" y="-587.8" font-family="Helvetica,sans-Serif" font-size="14.00" fill="#000000">class = versicolor</text>
</g>
<!-- 0&#45;&gt;2 -->
<g id="edge2" class="edge">
<title>0&#45;&gt;2</title>
<path fill="none" stroke="#000000" d="M224.1304,-698.8796C229.93,-690.1434 236.1059,-680.8404 242.0908,-671.8253"/>
<polygon fill="#000000" stroke="#000000" points="245.1368,-673.5652 247.7517,-663.2981 239.3049,-669.6935 245.1368,-673.5652"/>
<text text-anchor="middle" x="252.7022" y="-684.103" font-family="Helvetica,sans-Serif" font-size="14.00" fill="#000000">False</text>
</g>
<!-- 3 -->
<g id="node4" class="node">
<title>3</title>
<path fill="#3fe685" stroke="#000000" d="M253,-544C253,-544 130,-544 130,-544 124,-544 118,-538 118,-532 118,-532 118,-473 118,-473 118,-467 124,-461 130,-461 130,-461 253,-461 253,-461 259,-461 265,-467 265,-473 265,-473 265,-532 265,-532 265,-538 259,-544 253,-544"/>
<text text-anchor="start" x="126" y="-528.8" font-family="Helvetica,sans-Serif" font-size="14.00" fill="#000000">petal width (cm) ≤ 1.6</text>
<text text-anchor="start" x="156" y="-513.8" font-family="Helvetica,sans-Serif" font-size="14.00" fill="#000000">gini = 0.059</text>
<text text-anchor="start" x="150.5" y="-498.8" font-family="Helvetica,sans-Serif" font-size="14.00" fill="#000000">samples = 33</text>
<text text-anchor="start" x="141" y="-483.8" font-family="Helvetica,sans-Serif" font-size="14.00" fill="#000000">value = [0, 32, 1]</text>
<text text-anchor="start" x="139" y="-468.8" font-family="Helvetica,sans-Serif" font-size="14.00" fill="#000000">class = versicolor</text>
</g>
<!-- 2&#45;&gt;3 -->
<g id="edge3" class="edge">
<title>2&#45;&gt;3</title>
<path fill="none" stroke="#000000" d="M246.1209,-579.8796C239.8906,-571.0534 233.2519,-561.6485 226.827,-552.5466"/>
<polygon fill="#000000" stroke="#000000" points="229.6308,-550.4494 221.0045,-544.2981 223.912,-554.4862 229.6308,-550.4494"/>
</g>
<!-- 4 -->
<g id="node7" class="node">
<title>4</title>
<path fill="#9254e9" stroke="#000000" d="M426,-544C426,-544 295,-544 295,-544 289,-544 283,-538 283,-532 283,-532 283,-473 283,-473 283,-467 289,-461 295,-461 295,-461 426,-461 426,-461 432,-461 438,-467 438,-473 438,-473 438,-532 438,-532 438,-538 432,-544 426,-544"/>
<text text-anchor="start" x="291" y="-528.8" font-family="Helvetica,sans-Serif" font-size="14.00" fill="#000000">petal width (cm) ≤ 1.75</text>
<text text-anchor="start" x="325" y="-513.8" font-family="Helvetica,sans-Serif" font-size="14.00" fill="#000000">gini = 0.214</text>
<text text-anchor="start" x="319.5" y="-498.8" font-family="Helvetica,sans-Serif" font-size="14.00" fill="#000000">samples = 41</text>
<text text-anchor="start" x="310" y="-483.8" font-family="Helvetica,sans-Serif" font-size="14.00" fill="#000000">value = [0, 5, 36]</text>
<text text-anchor="start" x="312" y="-468.8" font-family="Helvetica,sans-Serif" font-size="14.00" fill="#000000">class = virginica</text>
</g>
<!-- 2&#45;&gt;4 -->
<g id="edge6" class="edge">
<title>2&#45;&gt;4</title>
<path fill="none" stroke="#000000" d="M305.2289,-579.8796C311.5333,-571.0534 318.251,-561.6485 324.7524,-552.5466"/>
<polygon fill="#000000" stroke="#000000" points="327.6799,-554.4698 330.6442,-544.2981 321.9837,-550.4011 327.6799,-554.4698"/>
</g>
<!-- 7 -->
<g id="node5" class="node">
<title>7</title>
<path fill="#39e581" stroke="#000000" d="M109,-417.5C109,-417.5 12,-417.5 12,-417.5 6,-417.5 0,-411.5 0,-405.5 0,-405.5 0,-361.5 0,-361.5 0,-355.5 6,-349.5 12,-349.5 12,-349.5 109,-349.5 109,-349.5 115,-349.5 121,-355.5 121,-361.5 121,-361.5 121,-405.5 121,-405.5 121,-411.5 115,-417.5 109,-417.5"/>
<text text-anchor="start" x="32.5" y="-402.3" font-family="Helvetica,sans-Serif" font-size="14.00" fill="#000000">gini = 0.0</text>
<text text-anchor="start" x="19.5" y="-387.3" font-family="Helvetica,sans-Serif" font-size="14.00" fill="#000000">samples = 32</text>
<text text-anchor="start" x="10" y="-372.3" font-family="Helvetica,sans-Serif" font-size="14.00" fill="#000000">value = [0, 32, 0]</text>
<text text-anchor="start" x="8" y="-357.3" font-family="Helvetica,sans-Serif" font-size="14.00" fill="#000000">class = versicolor</text>
</g>
<!-- 3&#45;&gt;7 -->
<g id="edge4" class="edge">
<title>3&#45;&gt;7</title>
<path fill="none" stroke="#000000" d="M145.6826,-460.8796C132.7303,-449.1138 118.646,-436.3197 105.7286,-424.5855"/>
<polygon fill="#000000" stroke="#000000" points="108.0306,-421.9482 98.2753,-417.8149 103.3239,-427.1296 108.0306,-421.9482"/>
</g>
<!-- 8 -->
<g id="node6" class="node">
<title>8</title>
<path fill="#8139e5" stroke="#000000" d="M240,-417.5C240,-417.5 151,-417.5 151,-417.5 145,-417.5 139,-411.5 139,-405.5 139,-405.5 139,-361.5 139,-361.5 139,-355.5 145,-349.5 151,-349.5 151,-349.5 240,-349.5 240,-349.5 246,-349.5 252,-355.5 252,-361.5 252,-361.5 252,-405.5 252,-405.5 252,-411.5 246,-417.5 240,-417.5"/>
<text text-anchor="start" x="167.5" y="-402.3" font-family="Helvetica,sans-Serif" font-size="14.00" fill="#000000">gini = 0.0</text>
<text text-anchor="start" x="158" y="-387.3" font-family="Helvetica,sans-Serif" font-size="14.00" fill="#000000">samples = 1</text>
<text text-anchor="start" x="148.5" y="-372.3" font-family="Helvetica,sans-Serif" font-size="14.00" fill="#000000">value = [0, 0, 1]</text>
<text text-anchor="start" x="147" y="-357.3" font-family="Helvetica,sans-Serif" font-size="14.00" fill="#000000">class = virginica</text>
</g>
<!-- 3&#45;&gt;8 -->
<g id="edge5" class="edge">
<title>3&#45;&gt;8</title>
<path fill="none" stroke="#000000" d="M192.899,-460.8796C193.2575,-450.2134 193.6445,-438.7021 194.0075,-427.9015"/>
<polygon fill="#000000" stroke="#000000" points="197.5085,-427.9269 194.3466,-417.8149 190.5125,-427.6917 197.5085,-427.9269"/>
</g>
<!-- 5 -->
<g id="node8" class="node">
<title>5</title>
<path fill="#ffffff" stroke="#000000" d="M425.5,-425C425.5,-425 289.5,-425 289.5,-425 283.5,-425 277.5,-419 277.5,-413 277.5,-413 277.5,-354 277.5,-354 277.5,-348 283.5,-342 289.5,-342 289.5,-342 425.5,-342 425.5,-342 431.5,-342 437.5,-348 437.5,-354 437.5,-354 437.5,-413 437.5,-413 437.5,-419 431.5,-425 425.5,-425"/>
<text text-anchor="start" x="285.5" y="-409.8" font-family="Helvetica,sans-Serif" font-size="14.00" fill="#000000">petal length (cm) ≤ 4.95</text>
<text text-anchor="start" x="329.5" y="-394.8" font-family="Helvetica,sans-Serif" font-size="14.00" fill="#000000">gini = 0.5</text>
<text text-anchor="start" x="320" y="-379.8" font-family="Helvetica,sans-Serif" font-size="14.00" fill="#000000">samples = 8</text>
<text text-anchor="start" x="310.5" y="-364.8" font-family="Helvetica,sans-Serif" font-size="14.00" fill="#000000">value = [0, 4, 4]</text>
<text text-anchor="start" x="305" y="-349.8" font-family="Helvetica,sans-Serif" font-size="14.00" fill="#000000">class = versicolor</text>
</g>
<!-- 4&#45;&gt;5 -->
<g id="edge7" class="edge">
<title>4&#45;&gt;5</title>
<path fill="none" stroke="#000000" d="M359.4507,-460.8796C359.2441,-452.6838 359.0249,-443.9891 358.811,-435.5013"/>
<polygon fill="#000000" stroke="#000000" points="362.3047,-435.2067 358.5537,-425.2981 355.307,-435.3831 362.3047,-435.2067"/>
</g>
<!-- 6 -->
<g id="node15" class="node">
<title>6</title>
<path fill="#853fe6" stroke="#000000" d="M603.5,-425C603.5,-425 467.5,-425 467.5,-425 461.5,-425 455.5,-419 455.5,-413 455.5,-413 455.5,-354 455.5,-354 455.5,-348 461.5,-342 467.5,-342 467.5,-342 603.5,-342 603.5,-342 609.5,-342 615.5,-348 615.5,-354 615.5,-354 615.5,-413 615.5,-413 615.5,-419 609.5,-425 603.5,-425"/>
<text text-anchor="start" x="463.5" y="-409.8" font-family="Helvetica,sans-Serif" font-size="14.00" fill="#000000">petal length (cm) ≤ 4.85</text>
<text text-anchor="start" x="500" y="-394.8" font-family="Helvetica,sans-Serif" font-size="14.00" fill="#000000">gini = 0.059</text>
<text text-anchor="start" x="494.5" y="-379.8" font-family="Helvetica,sans-Serif" font-size="14.00" fill="#000000">samples = 33</text>
<text text-anchor="start" x="485" y="-364.8" font-family="Helvetica,sans-Serif" font-size="14.00" fill="#000000">value = [0, 1, 32]</text>
<text text-anchor="start" x="487" y="-349.8" font-family="Helvetica,sans-Serif" font-size="14.00" fill="#000000">class = virginica</text>
</g>
<!-- 4&#45;&gt;6 -->
<g id="edge14" class="edge">
<title>4&#45;&gt;6</title>
<path fill="none" stroke="#000000" d="M421.7065,-460.8796C435.9606,-451.1868 451.241,-440.7961 465.8307,-430.8752"/>
<polygon fill="#000000" stroke="#000000" points="468.0269,-433.6143 474.3281,-425.0969 464.0907,-427.8258 468.0269,-433.6143"/>
</g>
<!-- 9 -->
<g id="node9" class="node">
<title>9</title>
<path fill="#39e581" stroke="#000000" d="M256,-298.5C256,-298.5 159,-298.5 159,-298.5 153,-298.5 147,-292.5 147,-286.5 147,-286.5 147,-242.5 147,-242.5 147,-236.5 153,-230.5 159,-230.5 159,-230.5 256,-230.5 256,-230.5 262,-230.5 268,-236.5 268,-242.5 268,-242.5 268,-286.5 268,-286.5 268,-292.5 262,-298.5 256,-298.5"/>
<text text-anchor="start" x="179.5" y="-283.3" font-family="Helvetica,sans-Serif" font-size="14.00" fill="#000000">gini = 0.0</text>
<text text-anchor="start" x="170" y="-268.3" font-family="Helvetica,sans-Serif" font-size="14.00" fill="#000000">samples = 2</text>
<text text-anchor="start" x="160.5" y="-253.3" font-family="Helvetica,sans-Serif" font-size="14.00" fill="#000000">value = [0, 2, 0]</text>
<text text-anchor="start" x="155" y="-238.3" font-family="Helvetica,sans-Serif" font-size="14.00" fill="#000000">class = versicolor</text>
</g>
<!-- 5&#45;&gt;9 -->
<g id="edge8" class="edge">
<title>5&#45;&gt;9</title>
<path fill="none" stroke="#000000" d="M305.0373,-341.8796C290.0678,-330.0038 273.7778,-317.0804 258.8741,-305.2568"/>
<polygon fill="#000000" stroke="#000000" points="260.7635,-302.2881 250.7541,-298.8149 256.413,-307.772 260.7635,-302.2881"/>
</g>
<!-- 10 -->
<g id="node10" class="node">
<title>10</title>
<path fill="#c09cf2" stroke="#000000" d="M429,-306C429,-306 298,-306 298,-306 292,-306 286,-300 286,-294 286,-294 286,-235 286,-235 286,-229 292,-223 298,-223 298,-223 429,-223 429,-223 435,-223 441,-229 441,-235 441,-235 441,-294 441,-294 441,-300 435,-306 429,-306"/>
<text text-anchor="start" x="294" y="-290.8" font-family="Helvetica,sans-Serif" font-size="14.00" fill="#000000">petal width (cm) ≤ 1.55</text>
<text text-anchor="start" x="328" y="-275.8" font-family="Helvetica,sans-Serif" font-size="14.00" fill="#000000">gini = 0.444</text>
<text text-anchor="start" x="326" y="-260.8" font-family="Helvetica,sans-Serif" font-size="14.00" fill="#000000">samples = 6</text>
<text text-anchor="start" x="316.5" y="-245.8" font-family="Helvetica,sans-Serif" font-size="14.00" fill="#000000">value = [0, 2, 4]</text>
<text text-anchor="start" x="315" y="-230.8" font-family="Helvetica,sans-Serif" font-size="14.00" fill="#000000">class = virginica</text>
</g>
<!-- 5&#45;&gt;10 -->
<g id="edge9" class="edge">
<title>5&#45;&gt;10</title>
<path fill="none" stroke="#000000" d="M359.5985,-341.8796C360.0117,-333.6838 360.4501,-324.9891 360.8781,-316.5013"/>
<polygon fill="#000000" stroke="#000000" points="364.3844,-316.4617 361.3925,-306.2981 357.3933,-316.1091 364.3844,-316.4617"/>
</g>
<!-- 11 -->
<g id="node11" class="node">
<title>11</title>
<path fill="#8139e5" stroke="#000000" d="M331,-179.5C331,-179.5 242,-179.5 242,-179.5 236,-179.5 230,-173.5 230,-167.5 230,-167.5 230,-123.5 230,-123.5 230,-117.5 236,-111.5 242,-111.5 242,-111.5 331,-111.5 331,-111.5 337,-111.5 343,-117.5 343,-123.5 343,-123.5 343,-167.5 343,-167.5 343,-173.5 337,-179.5 331,-179.5"/>
<text text-anchor="start" x="258.5" y="-164.3" font-family="Helvetica,sans-Serif" font-size="14.00" fill="#000000">gini = 0.0</text>
<text text-anchor="start" x="249" y="-149.3" font-family="Helvetica,sans-Serif" font-size="14.00" fill="#000000">samples = 3</text>
<text text-anchor="start" x="239.5" y="-134.3" font-family="Helvetica,sans-Serif" font-size="14.00" fill="#000000">value = [0, 0, 3]</text>
<text text-anchor="start" x="238" y="-119.3" font-family="Helvetica,sans-Serif" font-size="14.00" fill="#000000">class = virginica</text>
</g>
<!-- 10&#45;&gt;11 -->
<g id="edge10" class="edge">
<title>10&#45;&gt;11</title>
<path fill="none" stroke="#000000" d="M336.5691,-222.8796C329.3117,-211.6636 321.4497,-199.5131 314.1535,-188.2372"/>
<polygon fill="#000000" stroke="#000000" points="317.0748,-186.3093 308.7038,-179.8149 311.1978,-190.112 317.0748,-186.3093"/>
</g>
<!-- 12 -->
<g id="node12" class="node">
<title>12</title>
<path fill="#9cf2c0" stroke="#000000" d="M509.5,-187C509.5,-187 373.5,-187 373.5,-187 367.5,-187 361.5,-181 361.5,-175 361.5,-175 361.5,-116 361.5,-116 361.5,-110 367.5,-104 373.5,-104 373.5,-104 509.5,-104 509.5,-104 515.5,-104 521.5,-110 521.5,-116 521.5,-116 521.5,-175 521.5,-175 521.5,-181 515.5,-187 509.5,-187"/>
<text text-anchor="start" x="369.5" y="-171.8" font-family="Helvetica,sans-Serif" font-size="14.00" fill="#000000">petal length (cm) ≤ 5.45</text>
<text text-anchor="start" x="406" y="-156.8" font-family="Helvetica,sans-Serif" font-size="14.00" fill="#000000">gini = 0.444</text>
<text text-anchor="start" x="404" y="-141.8" font-family="Helvetica,sans-Serif" font-size="14.00" fill="#000000">samples = 3</text>
<text text-anchor="start" x="394.5" y="-126.8" font-family="Helvetica,sans-Serif" font-size="14.00" fill="#000000">value = [0, 2, 1]</text>
<text text-anchor="start" x="389" y="-111.8" font-family="Helvetica,sans-Serif" font-size="14.00" fill="#000000">class = versicolor</text>
</g>
<!-- 10&#45;&gt;12 -->
<g id="edge11" class="edge">
<title>10&#45;&gt;12</title>
<path fill="none" stroke="#000000" d="M390.7806,-222.8796C396.5068,-214.1434 402.6046,-204.8404 408.5137,-195.8253"/>
<polygon fill="#000000" stroke="#000000" points="411.5482,-197.5803 414.1029,-187.2981 405.6937,-193.7429 411.5482,-197.5803"/>
</g>
<!-- 13 -->
<g id="node13" class="node">
<title>13</title>
<path fill="#39e581" stroke="#000000" d="M422,-68C422,-68 325,-68 325,-68 319,-68 313,-62 313,-56 313,-56 313,-12 313,-12 313,-6 319,0 325,0 325,0 422,0 422,0 428,0 434,-6 434,-12 434,-12 434,-56 434,-56 434,-62 428,-68 422,-68"/>
<text text-anchor="start" x="345.5" y="-52.8" font-family="Helvetica,sans-Serif" font-size="14.00" fill="#000000">gini = 0.0</text>
<text text-anchor="start" x="336" y="-37.8" font-family="Helvetica,sans-Serif" font-size="14.00" fill="#000000">samples = 2</text>
<text text-anchor="start" x="326.5" y="-22.8" font-family="Helvetica,sans-Serif" font-size="14.00" fill="#000000">value = [0, 2, 0]</text>
<text text-anchor="start" x="321" y="-7.8" font-family="Helvetica,sans-Serif" font-size="14.00" fill="#000000">class = versicolor</text>
</g>
<!-- 12&#45;&gt;13 -->
<g id="edge12" class="edge">
<title>12&#45;&gt;13</title>
<path fill="none" stroke="#000000" d="M416.1793,-103.9815C410.7984,-95.1585 405.1068,-85.8258 399.6941,-76.9506"/>
<polygon fill="#000000" stroke="#000000" points="402.5912,-74.9789 394.3962,-68.2637 396.6149,-78.6236 402.5912,-74.9789"/>
</g>
<!-- 14 -->
<g id="node14" class="node">
<title>14</title>
<path fill="#8139e5" stroke="#000000" d="M553,-68C553,-68 464,-68 464,-68 458,-68 452,-62 452,-56 452,-56 452,-12 452,-12 452,-6 458,0 464,0 464,0 553,0 553,0 559,0 565,-6 565,-12 565,-12 565,-56 565,-56 565,-62 559,-68 553,-68"/>
<text text-anchor="start" x="480.5" y="-52.8" font-family="Helvetica,sans-Serif" font-size="14.00" fill="#000000">gini = 0.0</text>
<text text-anchor="start" x="471" y="-37.8" font-family="Helvetica,sans-Serif" font-size="14.00" fill="#000000">samples = 1</text>
<text text-anchor="start" x="461.5" y="-22.8" font-family="Helvetica,sans-Serif" font-size="14.00" fill="#000000">value = [0, 0, 1]</text>
<text text-anchor="start" x="460" y="-7.8" font-family="Helvetica,sans-Serif" font-size="14.00" fill="#000000">class = virginica</text>
</g>
<!-- 12&#45;&gt;14 -->
<g id="edge13" class="edge">
<title>12&#45;&gt;14</title>
<path fill="none" stroke="#000000" d="M466.4483,-103.9815C471.7501,-95.1585 477.3581,-85.8258 482.6911,-76.9506"/>
<polygon fill="#000000" stroke="#000000" points="485.7605,-78.638 487.9111,-68.2637 479.7604,-75.0325 485.7605,-78.638"/>
</g>
<!-- 15 -->
<g id="node16" class="node">
<title>15</title>
<path fill="#c09cf2" stroke="#000000" d="M573,-298.5C573,-298.5 484,-298.5 484,-298.5 478,-298.5 472,-292.5 472,-286.5 472,-286.5 472,-242.5 472,-242.5 472,-236.5 478,-230.5 484,-230.5 484,-230.5 573,-230.5 573,-230.5 579,-230.5 585,-236.5 585,-242.5 585,-242.5 585,-286.5 585,-286.5 585,-292.5 579,-298.5 573,-298.5"/>
<text text-anchor="start" x="493" y="-283.3" font-family="Helvetica,sans-Serif" font-size="14.00" fill="#000000">gini = 0.444</text>
<text text-anchor="start" x="491" y="-268.3" font-family="Helvetica,sans-Serif" font-size="14.00" fill="#000000">samples = 3</text>
<text text-anchor="start" x="481.5" y="-253.3" font-family="Helvetica,sans-Serif" font-size="14.00" fill="#000000">value = [0, 1, 2]</text>
<text text-anchor="start" x="480" y="-238.3" font-family="Helvetica,sans-Serif" font-size="14.00" fill="#000000">class = virginica</text>
</g>
<!-- 6&#45;&gt;15 -->
<g id="edge15" class="edge">
<title>6&#45;&gt;15</title>
<path fill="none" stroke="#000000" d="M533.0517,-341.8796C532.4243,-331.2134 531.7472,-319.7021 531.1119,-308.9015"/>
<polygon fill="#000000" stroke="#000000" points="534.5998,-308.5921 530.5185,-298.8149 527.6119,-309.0032 534.5998,-308.5921"/>
</g>
<!-- 16 -->
<g id="node17" class="node">
<title>16</title>
<path fill="#8139e5" stroke="#000000" d="M708,-298.5C708,-298.5 615,-298.5 615,-298.5 609,-298.5 603,-292.5 603,-286.5 603,-286.5 603,-242.5 603,-242.5 603,-236.5 609,-230.5 615,-230.5 615,-230.5 708,-230.5 708,-230.5 714,-230.5 720,-236.5 720,-242.5 720,-242.5 720,-286.5 720,-286.5 720,-292.5 714,-298.5 708,-298.5"/>
<text text-anchor="start" x="633.5" y="-283.3" font-family="Helvetica,sans-Serif" font-size="14.00" fill="#000000">gini = 0.0</text>
<text text-anchor="start" x="620.5" y="-268.3" font-family="Helvetica,sans-Serif" font-size="14.00" fill="#000000">samples = 30</text>
<text text-anchor="start" x="611" y="-253.3" font-family="Helvetica,sans-Serif" font-size="14.00" fill="#000000">value = [0, 0, 30]</text>
<text text-anchor="start" x="613" y="-238.3" font-family="Helvetica,sans-Serif" font-size="14.00" fill="#000000">class = virginica</text>
</g>
<!-- 6&#45;&gt;16 -->
<g id="edge16" class="edge">
<title>6&#45;&gt;16</title>
<path fill="none" stroke="#000000" d="M579.5687,-341.8796C591.9102,-330.2237 605.3202,-317.5587 617.649,-305.9148"/>
<polygon fill="#000000" stroke="#000000" points="620.2996,-308.2258 625.1665,-298.8149 615.4932,-303.1366 620.2996,-308.2258"/>
</g>
</g>
</svg>
