<?xml version="1.0" encoding="UTF-8" standalone="no"?>
<!DOCTYPE svg PUBLIC "-//W3C//DTD SVG 1.1//EN"
 "http://www.w3.org/Graphics/SVG/1.1/DTD/svg11.dtd">
<!-- Generated by graphviz version 2.40.1 (20161225.0304)
 -->
<!-- Title: Tree Pages: 1 -->
<svg width="428pt" height="433pt"
 viewBox="0.00 0.00 428.00 433.00" xmlns="http://www.w3.org/2000/svg" xmlns:xlink="http://www.w3.org/1999/xlink">
<g id="graph0" class="graph" transform="scale(1 1) rotate(0) translate(4 429)">
<title>Tree</title>
<polygon fill="#ffffff" stroke="transparent" points="-4,4 -4,-429 424,-429 424,4 -4,4"/>
<!-- 0 -->
<g id="node1" class="node">
<title>0</title>
<path fill="#ffffff" stroke="#000000" d="M204.5,-425C204.5,-425 68.5,-425 68.5,-425 62.5,-425 56.5,-419 56.5,-413 56.5,-413 56.5,-354 56.5,-354 56.5,-348 62.5,-342 68.5,-342 68.5,-342 204.5,-342 204.5,-342 210.5,-342 216.5,-348 216.5,-354 216.5,-354 216.5,-413 216.5,-413 216.5,-419 210.5,-425 204.5,-425"/>
<text text-anchor="start" x="64.5" y="-409.8" font-family="Helvetica,sans-Serif" font-size="14.00" fill="#000000">petal length (cm) ≤ 2.45</text>
<text text-anchor="start" x="101" y="-394.8" font-family="Helvetica,sans-Serif" font-size="14.00" fill="#000000">gini = 0.664</text>
<text text-anchor="start" x="91.5" y="-379.8" font-family="Helvetica,sans-Serif" font-size="14.00" fill="#000000">samples = 105</text>
<text text-anchor="start" x="78.5" y="-364.8" font-family="Helvetica,sans-Serif" font-size="14.00" fill="#000000">value = [31, 37, 37]</text>
<text text-anchor="start" x="84" y="-349.8" font-family="Helvetica,sans-Serif" font-size="14.00" fill="#000000">class = versicolor</text>
</g>
<!-- 1 -->
<g id="node2" class="node">
<title>1</title>
<path fill="#e58139" stroke="#000000" d="M105,-298.5C105,-298.5 12,-298.5 12,-298.5 6,-298.5 0,-292.5 0,-286.5 0,-286.5 0,-242.5 0,-242.5 0,-236.5 6,-230.5 12,-230.5 12,-230.5 105,-230.5 105,-230.5 111,-230.5 117,-236.5 117,-242.5 117,-242.5 117,-286.5 117,-286.5 117,-292.5 111,-298.5 105,-298.5"/>
<text text-anchor="start" x="30.5" y="-283.3" font-family="Helvetica,sans-Serif" font-size="14.00" fill="#000000">gini = 0.0</text>
<text text-anchor="start" x="17.5" y="-268.3" font-family="Helvetica,sans-Serif" font-size="14.00" fill="#000000">samples = 31</text>
<text text-anchor="start" x="8" y="-253.3" font-family="Helvetica,sans-Serif" font-size="14.00" fill="#000000">value = [31, 0, 0]</text>
<text text-anchor="start" x="15" y="-238.3" font-family="Helvetica,sans-Serif" font-size="14.00" fill="#000000">class = setosa</text>
</g>
<!-- 0&#45;&gt;1 -->
<g id="edge1" class="edge">
<title>0&#45;&gt;1</title>
<path fill="none" stroke="#000000" d="M109.2194,-341.8796C101.8677,-330.6636 93.9036,-318.5131 86.5126,-307.2372"/>
<polygon fill="#000000" stroke="#000000" points="89.4014,-305.2598 80.9921,-298.8149 83.5469,-309.0972 89.4014,-305.2598"/>
<text text-anchor="middle" x="75.8982" y="-319.5905" font-family="Helvetica,sans-Serif" font-size="14.00" fill="#000000">True</text>
</g>
<!-- 2 -->
<g id="node3" class="node">
<title>2</title>
<path fill="#ffffff" stroke="#000000" d="M283.5,-306C283.5,-306 147.5,-306 147.5,-306 141.5,-306 135.5,-300 135.5,-294 135.5,-294 135.5,-235 135.5,-235 135.5,-229 141.5,-223 147.5,-223 147.5,-223 283.5,-223 283.5,-223 289.5,-223 295.5,-229 295.5,-235 295.5,-235 295.5,-294 295.5,-294 295.5,-300 289.5,-306 283.5,-306"/>
<text text-anchor="start" x="143.5" y="-290.8" font-family="Helvetica,sans-Serif" font-size="14.00" fill="#000000">petal length (cm) ≤ 4.75</text>
<text text-anchor="start" x="187.5" y="-275.8" font-family="Helvetica,sans-Serif" font-size="14.00" fill="#000000">gini = 0.5</text>
<text text-anchor="start" x="174.5" y="-260.8" font-family="Helvetica,sans-Serif" font-size="14.00" fill="#000000">samples = 74</text>
<text text-anchor="start" x="161" y="-245.8" font-family="Helvetica,sans-Serif" font-size="14.00" fill="#000000">value = [0, 37, 37]</text>
<text text-anchor="start" x="163" y="-230.8" font-family="Helvetica,sans-Serif" font-size="14.00" fill="#000000">class = versicolor</text>
</g>
<!-- 0&#45;&gt;2 -->
<g id="edge2" class="edge">
<title>0&#45;&gt;2</title>
<path fill="none" stroke="#000000" d="M164.1304,-341.8796C169.93,-333.1434 176.1059,-323.8404 182.0908,-314.8253"/>
<polygon fill="#000000" stroke="#000000" points="185.1368,-316.5652 187.7517,-306.2981 179.3049,-312.6935 185.1368,-316.5652"/>
<text text-anchor="middle" x="192.7022" y="-327.103" font-family="Helvetica,sans-Serif" font-size="14.00" fill="#000000">False</text>
</g>
<!-- 3 -->
<g id="node4" class="node">
<title>3</title>
<path fill="#3fe685" stroke="#000000" d="M186,-179.5C186,-179.5 89,-179.5 89,-179.5 83,-179.5 77,-173.5 77,-167.5 77,-167.5 77,-123.5 77,-123.5 77,-117.5 83,-111.5 89,-111.5 89,-111.5 186,-111.5 186,-111.5 192,-111.5 198,-117.5 198,-123.5 198,-123.5 198,-167.5 198,-167.5 198,-173.5 192,-179.5 186,-179.5"/>
<text text-anchor="start" x="102" y="-164.3" font-family="Helvetica,sans-Serif" font-size="14.00" fill="#000000">gini = 0.059</text>
<text text-anchor="start" x="96.5" y="-149.3" font-family="Helvetica,sans-Serif" font-size="14.00" fill="#000000">samples = 33</text>
<text text-anchor="start" x="87" y="-134.3" font-family="Helvetica,sans-Serif" font-size="14.00" fill="#000000">value = [0, 32, 1]</text>
<text text-anchor="start" x="85" y="-119.3" font-family="Helvetica,sans-Serif" font-size="14.00" fill="#000000">class = versicolor</text>
</g>
<!-- 2&#45;&gt;3 -->
<g id="edge3" class="edge">
<title>2&#45;&gt;3</title>
<path fill="none" stroke="#000000" d="M188.2194,-222.8796C180.8677,-211.6636 172.9036,-199.5131 165.5126,-188.2372"/>
<polygon fill="#000000" stroke="#000000" points="168.4014,-186.2598 159.9921,-179.8149 162.5469,-190.0972 168.4014,-186.2598"/>
</g>
<!-- 4 -->
<g id="node5" class="node">
<title>4</title>
<path fill="#9254e9" stroke="#000000" d="M359,-187C359,-187 228,-187 228,-187 222,-187 216,-181 216,-175 216,-175 216,-116 216,-116 216,-110 222,-104 228,-104 228,-104 359,-104 359,-104 365,-104 371,-110 371,-116 371,-116 371,-175 371,-175 371,-181 365,-187 359,-187"/>
<text text-anchor="start" x="224" y="-171.8" font-family="Helvetica,sans-Serif" font-size="14.00" fill="#000000">petal width (cm) ≤ 1.75</text>
<text text-anchor="start" x="258" y="-156.8" font-family="Helvetica,sans-Serif" font-size="14.00" fill="#000000">gini = 0.214</text>
<text text-anchor="start" x="252.5" y="-141.8" font-family="Helvetica,sans-Serif" font-size="14.00" fill="#000000">samples = 41</text>
<text text-anchor="start" x="243" y="-126.8" font-family="Helvetica,sans-Serif" font-size="14.00" fill="#000000">value = [0, 5, 36]</text>
<text text-anchor="start" x="245" y="-111.8" font-family="Helvetica,sans-Serif" font-size="14.00" fill="#000000">class = virginica</text>
</g>
<!-- 2&#45;&gt;4 -->
<g id="edge4" class="edge">
<title>2&#45;&gt;4</title>
<path fill="none" stroke="#000000" d="M242.7806,-222.8796C248.5068,-214.1434 254.6046,-204.8404 260.5137,-195.8253"/>
<polygon fill="#000000" stroke="#000000" points="263.5482,-197.5803 266.1029,-187.2981 257.6937,-193.7429 263.5482,-197.5803"/>
</g>
<!-- 5 -->
<g id="node6" class="node">
<title>5</title>
<path fill="#ffffff" stroke="#000000" d="M273,-68C273,-68 176,-68 176,-68 170,-68 164,-62 164,-56 164,-56 164,-12 164,-12 164,-6 170,0 176,0 176,0 273,0 273,0 279,0 285,-6 285,-12 285,-12 285,-56 285,-56 285,-62 279,-68 273,-68"/>
<text text-anchor="start" x="196.5" y="-52.8" font-family="Helvetica,sans-Serif" font-size="14.00" fill="#000000">gini = 0.5</text>
<text text-anchor="start" x="187" y="-37.8" font-family="Helvetica,sans-Serif" font-size="14.00" fill="#000000">samples = 8</text>
<text text-anchor="start" x="177.5" y="-22.8" font-family="Helvetica,sans-Serif" font-size="14.00" fill="#000000">value = [0, 4, 4]</text>
<text text-anchor="start" x="172" y="-7.8" font-family="Helvetica,sans-Serif" font-size="14.00" fill="#000000">class = versicolor</text>
</g>
<!-- 4&#45;&gt;5 -->
<g id="edge5" class="edge">
<title>4&#45;&gt;5</title>
<path fill="none" stroke="#000000" d="M267.8069,-103.9815C262.3469,-95.1585 256.5716,-85.8258 251.0793,-76.9506"/>
<polygon fill="#000000" stroke="#000000" points="253.942,-74.9254 245.7035,-68.2637 247.9896,-78.609 253.942,-74.9254"/>
</g>
<!-- 6 -->
<g id="node7" class="node">
<title>6</title>
<path fill="#853fe6" stroke="#000000" d="M408,-68C408,-68 315,-68 315,-68 309,-68 303,-62 303,-56 303,-56 303,-12 303,-12 303,-6 309,0 315,0 315,0 408,0 408,0 414,0 420,-6 420,-12 420,-12 420,-56 420,-56 420,-62 414,-68 408,-68"/>
<text text-anchor="start" x="326" y="-52.8" font-family="Helvetica,sans-Serif" font-size="14.00" fill="#000000">gini = 0.059</text>
<text text-anchor="start" x="320.5" y="-37.8" font-family="Helvetica,sans-Serif" font-size="14.00" fill="#000000">samples = 33</text>
<text text-anchor="start" x="311" y="-22.8" font-family="Helvetica,sans-Serif" font-size="14.00" fill="#000000">value = [0, 1, 32]</text>
<text text-anchor="start" x="313" y="-7.8" font-family="Helvetica,sans-Serif" font-size="14.00" fill="#000000">class = virginica</text>
</g>
<!-- 4&#45;&gt;6 -->
<g id="edge6" class="edge">
<title>4&#45;&gt;6</title>
<path fill="none" stroke="#000000" d="M318.8207,-103.9815C324.2016,-95.1585 329.8932,-85.8258 335.3059,-76.9506"/>
<polygon fill="#000000" stroke="#000000" points="338.3851,-78.6236 340.6038,-68.2637 332.4088,-74.9789 338.3851,-78.6236"/>
</g>
</g>
</svg>
