<?xml version="1.0" encoding="UTF-8" standalone="no"?>
<!DOCTYPE svg PUBLIC "-//W3C//DTD SVG 1.1//EN"
 "http://www.w3.org/Graphics/SVG/1.1/DTD/svg11.dtd">
<!-- Generated by graphviz version 2.40.1 (20161225.0304)
 -->
<!-- Title: Tree Pages: 1 -->
<svg width="350pt" height="314pt"
 viewBox="0.00 0.00 350.00 314.00" xmlns="http://www.w3.org/2000/svg" xmlns:xlink="http://www.w3.org/1999/xlink">
<g id="graph0" class="graph" transform="scale(1 1) rotate(0) translate(4 310)">
<title>Tree</title>
<polygon fill="#ffffff" stroke="transparent" points="-4,4 -4,-310 346,-310 346,4 -4,4"/>
<!-- 0 -->
<g id="node1" class="node">
<title>0</title>
<path fill="#ffffff" stroke="#000000" d="M198,-306C198,-306 75,-306 75,-306 69,-306 63,-300 63,-294 63,-294 63,-235 63,-235 63,-229 69,-223 75,-223 75,-223 198,-223 198,-223 204,-223 210,-229 210,-235 210,-235 210,-294 210,-294 210,-300 204,-306 198,-306"/>
<text text-anchor="start" x="71" y="-290.8" font-family="Helvetica,sans-Serif" font-size="14.00" fill="#000000">petal width (cm) ≤ 0.8</text>
<text text-anchor="start" x="101" y="-275.8" font-family="Helvetica,sans-Serif" font-size="14.00" fill="#000000">gini = 0.664</text>
<text text-anchor="start" x="91.5" y="-260.8" font-family="Helvetica,sans-Serif" font-size="14.00" fill="#000000">samples = 105</text>
<text text-anchor="start" x="78.5" y="-245.8" font-family="Helvetica,sans-Serif" font-size="14.00" fill="#000000">value = [31, 37, 37]</text>
<text text-anchor="start" x="84" y="-230.8" font-family="Helvetica,sans-Serif" font-size="14.00" fill="#000000">class = versicolor</text>
</g>
<!-- 1 -->
<g id="node2" class="node">
<title>1</title>
<path fill="#e58139" stroke="#000000" d="M105,-179.5C105,-179.5 12,-179.5 12,-179.5 6,-179.5 0,-173.5 0,-167.5 0,-167.5 0,-123.5 0,-123.5 0,-117.5 6,-111.5 12,-111.5 12,-111.5 105,-111.5 105,-111.5 111,-111.5 117,-117.5 117,-123.5 117,-123.5 117,-167.5 117,-167.5 117,-173.5 111,-179.5 105,-179.5"/>
<text text-anchor="start" x="30.5" y="-164.3" font-family="Helvetica,sans-Serif" font-size="14.00" fill="#000000">gini = 0.0</text>
<text text-anchor="start" x="17.5" y="-149.3" font-family="Helvetica,sans-Serif" font-size="14.00" fill="#000000">samples = 31</text>
<text text-anchor="start" x="8" y="-134.3" font-family="Helvetica,sans-Serif" font-size="14.00" fill="#000000">value = [31, 0, 0]</text>
<text text-anchor="start" x="15" y="-119.3" font-family="Helvetica,sans-Serif" font-size="14.00" fill="#000000">class = setosa</text>
</g>
<!-- 0&#45;&gt;1 -->
<g id="edge1" class="edge">
<title>0&#45;&gt;1</title>
<path fill="none" stroke="#000000" d="M109.2194,-222.8796C101.8677,-211.6636 93.9036,-199.5131 86.5126,-188.2372"/>
<polygon fill="#000000" stroke="#000000" points="89.4014,-186.2598 80.9921,-179.8149 83.5469,-190.0972 89.4014,-186.2598"/>
<text text-anchor="middle" x="75.8982" y="-200.5905" font-family="Helvetica,sans-Serif" font-size="14.00" fill="#000000">True</text>
</g>
<!-- 2 -->
<g id="node3" class="node">
<title>2</title>
<path fill="#ffffff" stroke="#000000" d="M283.5,-187C283.5,-187 147.5,-187 147.5,-187 141.5,-187 135.5,-181 135.5,-175 135.5,-175 135.5,-116 135.5,-116 135.5,-110 141.5,-104 147.5,-104 147.5,-104 283.5,-104 283.5,-104 289.5,-104 295.5,-110 295.5,-116 295.5,-116 295.5,-175 295.5,-175 295.5,-181 289.5,-187 283.5,-187"/>
<text text-anchor="start" x="143.5" y="-171.8" font-family="Helvetica,sans-Serif" font-size="14.00" fill="#000000">petal length (cm) ≤ 4.75</text>
<text text-anchor="start" x="187.5" y="-156.8" font-family="Helvetica,sans-Serif" font-size="14.00" fill="#000000">gini = 0.5</text>
<text text-anchor="start" x="174.5" y="-141.8" font-family="Helvetica,sans-Serif" font-size="14.00" fill="#000000">samples = 74</text>
<text text-anchor="start" x="161" y="-126.8" font-family="Helvetica,sans-Serif" font-size="14.00" fill="#000000">value = [0, 37, 37]</text>
<text text-anchor="start" x="163" y="-111.8" font-family="Helvetica,sans-Serif" font-size="14.00" fill="#000000">class = versicolor</text>
</g>
<!-- 0&#45;&gt;2 -->
<g id="edge2" class="edge">
<title>0&#45;&gt;2</title>
<path fill="none" stroke="#000000" d="M164.1304,-222.8796C169.93,-214.1434 176.1059,-204.8404 182.0908,-195.8253"/>
<polygon fill="#000000" stroke="#000000" points="185.1368,-197.5652 187.7517,-187.2981 179.3049,-193.6935 185.1368,-197.5652"/>
<text text-anchor="middle" x="192.7022" y="-208.103" font-family="Helvetica,sans-Serif" font-size="14.00" fill="#000000">False</text>
</g>
<!-- 3 -->
<g id="node4" class="node">
<title>3</title>
<path fill="#3fe685" stroke="#000000" d="M195,-68C195,-68 98,-68 98,-68 92,-68 86,-62 86,-56 86,-56 86,-12 86,-12 86,-6 92,0 98,0 98,0 195,0 195,0 201,0 207,-6 207,-12 207,-12 207,-56 207,-56 207,-62 201,-68 195,-68"/>
<text text-anchor="start" x="111" y="-52.8" font-family="Helvetica,sans-Serif" font-size="14.00" fill="#000000">gini = 0.059</text>
<text text-anchor="start" x="105.5" y="-37.8" font-family="Helvetica,sans-Serif" font-size="14.00" fill="#000000">samples = 33</text>
<text text-anchor="start" x="96" y="-22.8" font-family="Helvetica,sans-Serif" font-size="14.00" fill="#000000">value = [0, 32, 1]</text>
<text text-anchor="start" x="94" y="-7.8" font-family="Helvetica,sans-Serif" font-size="14.00" fill="#000000">class = versicolor</text>
</g>
<!-- 2&#45;&gt;3 -->
<g id="edge3" class="edge">
<title>2&#45;&gt;3</title>
<path fill="none" stroke="#000000" d="M189.8069,-103.9815C184.3469,-95.1585 178.5716,-85.8258 173.0793,-76.9506"/>
<polygon fill="#000000" stroke="#000000" points="175.942,-74.9254 167.7035,-68.2637 169.9896,-78.609 175.942,-74.9254"/>
</g>
<!-- 4 -->
<g id="node5" class="node">
<title>4</title>
<path fill="#9254e9" stroke="#000000" d="M330,-68C330,-68 237,-68 237,-68 231,-68 225,-62 225,-56 225,-56 225,-12 225,-12 225,-6 231,0 237,0 237,0 330,0 330,0 336,0 342,-6 342,-12 342,-12 342,-56 342,-56 342,-62 336,-68 330,-68"/>
<text text-anchor="start" x="248" y="-52.8" font-family="Helvetica,sans-Serif" font-size="14.00" fill="#000000">gini = 0.214</text>
<text text-anchor="start" x="242.5" y="-37.8" font-family="Helvetica,sans-Serif" font-size="14.00" fill="#000000">samples = 41</text>
<text text-anchor="start" x="233" y="-22.8" font-family="Helvetica,sans-Serif" font-size="14.00" fill="#000000">value = [0, 5, 36]</text>
<text text-anchor="start" x="235" y="-7.8" font-family="Helvetica,sans-Serif" font-size="14.00" fill="#000000">class = virginica</text>
</g>
<!-- 2&#45;&gt;4 -->
<g id="edge4" class="edge">
<title>2&#45;&gt;4</title>
<path fill="none" stroke="#000000" d="M240.8207,-103.9815C246.2016,-95.1585 251.8932,-85.8258 257.3059,-76.9506"/>
<polygon fill="#000000" stroke="#000000" points="260.3851,-78.6236 262.6038,-68.2637 254.4088,-74.9789 260.3851,-78.6236"/>
</g>
</g>
</svg>
