<?xml version="1.0" encoding="UTF-8" standalone="no"?>
<!DOCTYPE svg PUBLIC "-//W3C//DTD SVG 1.1//EN"
 "http://www.w3.org/Graphics/SVG/1.1/DTD/svg11.dtd">
<!-- Generated by graphviz version 2.40.1 (20161225.0304)
 -->
<!-- Title: Tree Pages: 1 -->
<svg width="581pt" height="671pt"
 viewBox="0.00 0.00 581.00 671.00" xmlns="http://www.w3.org/2000/svg" xmlns:xlink="http://www.w3.org/1999/xlink">
<g id="graph0" class="graph" transform="scale(1 1) rotate(0) translate(4 667)">
<title>Tree</title>
<polygon fill="#ffffff" stroke="transparent" points="-4,4 -4,-667 577,-667 577,4 -4,4"/>
<!-- 0 -->
<g id="node1" class="node">
<title>0</title>
<path fill="#ffffff" stroke="#000000" d="M258,-663C258,-663 135,-663 135,-663 129,-663 123,-657 123,-651 123,-651 123,-592 123,-592 123,-586 129,-580 135,-580 135,-580 258,-580 258,-580 264,-580 270,-586 270,-592 270,-592 270,-651 270,-651 270,-657 264,-663 258,-663"/>
<text text-anchor="start" x="131" y="-647.8" font-family="Helvetica,sans-Serif" font-size="14.00" fill="#000000">petal width (cm) ≤ 0.8</text>
<text text-anchor="start" x="161" y="-632.8" font-family="Helvetica,sans-Serif" font-size="14.00" fill="#000000">gini = 0.664</text>
<text text-anchor="start" x="151.5" y="-617.8" font-family="Helvetica,sans-Serif" font-size="14.00" fill="#000000">samples = 105</text>
<text text-anchor="start" x="138.5" y="-602.8" font-family="Helvetica,sans-Serif" font-size="14.00" fill="#000000">value = [31, 37, 37]</text>
<text text-anchor="start" x="144" y="-587.8" font-family="Helvetica,sans-Serif" font-size="14.00" fill="#000000">class = versicolor</text>
</g>
<!-- 1 -->
<g id="node2" class="node">
<title>1</title>
<path fill="#e58139" stroke="#000000" d="M165,-536.5C165,-536.5 72,-536.5 72,-536.5 66,-536.5 60,-530.5 60,-524.5 60,-524.5 60,-480.5 60,-480.5 60,-474.5 66,-468.5 72,-468.5 72,-468.5 165,-468.5 165,-468.5 171,-468.5 177,-474.5 177,-480.5 177,-480.5 177,-524.5 177,-524.5 177,-530.5 171,-536.5 165,-536.5"/>
<text text-anchor="start" x="90.5" y="-521.3" font-family="Helvetica,sans-Serif" font-size="14.00" fill="#000000">gini = 0.0</text>
<text text-anchor="start" x="77.5" y="-506.3" font-family="Helvetica,sans-Serif" font-size="14.00" fill="#000000">samples = 31</text>
<text text-anchor="start" x="68" y="-491.3" font-family="Helvetica,sans-Serif" font-size="14.00" fill="#000000">value = [31, 0, 0]</text>
<text text-anchor="start" x="75" y="-476.3" font-family="Helvetica,sans-Serif" font-size="14.00" fill="#000000">class = setosa</text>
</g>
<!-- 0&#45;&gt;1 -->
<g id="edge1" class="edge">
<title>0&#45;&gt;1</title>
<path fill="none" stroke="#000000" d="M169.2194,-579.8796C161.8677,-568.6636 153.9036,-556.5131 146.5126,-545.2372"/>
<polygon fill="#000000" stroke="#000000" points="149.4014,-543.2598 140.9921,-536.8149 143.5469,-547.0972 149.4014,-543.2598"/>
<text text-anchor="middle" x="135.8982" y="-557.5905" font-family="Helvetica,sans-Serif" font-size="14.00" fill="#000000">True</text>
</g>
<!-- 2 -->
<g id="node3" class="node">
<title>2</title>
<path fill="#ffffff" stroke="#000000" d="M343.5,-544C343.5,-544 207.5,-544 207.5,-544 201.5,-544 195.5,-538 195.5,-532 195.5,-532 195.5,-473 195.5,-473 195.5,-467 201.5,-461 207.5,-461 207.5,-461 343.5,-461 343.5,-461 349.5,-461 355.5,-467 355.5,-473 355.5,-473 355.5,-532 355.5,-532 355.5,-538 349.5,-544 343.5,-544"/>
<text text-anchor="start" x="203.5" y="-528.8" font-family="Helvetica,sans-Serif" font-size="14.00" fill="#000000">petal length (cm) ≤ 4.75</text>
<text text-anchor="start" x="247.5" y="-513.8" font-family="Helvetica,sans-Serif" font-size="14.00" fill="#000000">gini = 0.5</text>
<text text-anchor="start" x="234.5" y="-498.8" font-family="Helvetica,sans-Serif" font-size="14.00" fill="#000000">samples = 74</text>
<text text-anchor="start" x="221" y="-483.8" font-family="Helvetica,sans-Serif" font-size="14.00" fill="#000000">value = [0, 37, 37]</text>
<text text-anchor="start" x="223" y="-468.8" font-family="Helvetica,sans-Serif" font-size="14.00" fill="#000000">class = versicolor</text>
</g>
<!-- 0&#45;&gt;2 -->
<g id="edge2" class="edge">
<title>0&#45;&gt;2</title>
<path fill="none" stroke="#000000" d="M224.1304,-579.8796C229.93,-571.1434 236.1059,-561.8404 242.0908,-552.8253"/>
<polygon fill="#000000" stroke="#000000" points="245.1368,-554.5652 247.7517,-544.2981 239.3049,-550.6935 245.1368,-554.5652"/>
<text text-anchor="middle" x="252.7022" y="-565.103" font-family="Helvetica,sans-Serif" font-size="14.00" fill="#000000">False</text>
</g>
<!-- 3 -->
<g id="node4" class="node">
<title>3</title>
<path fill="#3fe685" stroke="#000000" d="M253,-425C253,-425 130,-425 130,-425 124,-425 118,-419 118,-413 118,-413 118,-354 118,-354 118,-348 124,-342 130,-342 130,-342 253,-342 253,-342 259,-342 265,-348 265,-354 265,-354 265,-413 265,-413 265,-419 259,-425 253,-425"/>
<text text-anchor="start" x="126" y="-409.8" font-family="Helvetica,sans-Serif" font-size="14.00" fill="#000000">petal width (cm) ≤ 1.6</text>
<text text-anchor="start" x="156" y="-394.8" font-family="Helvetica,sans-Serif" font-size="14.00" fill="#000000">gini = 0.059</text>
<text text-anchor="start" x="150.5" y="-379.8" font-family="Helvetica,sans-Serif" font-size="14.00" fill="#000000">samples = 33</text>
<text text-anchor="start" x="141" y="-364.8" font-family="Helvetica,sans-Serif" font-size="14.00" fill="#000000">value = [0, 32, 1]</text>
<text text-anchor="start" x="139" y="-349.8" font-family="Helvetica,sans-Serif" font-size="14.00" fill="#000000">class = versicolor</text>
</g>
<!-- 2&#45;&gt;3 -->
<g id="edge3" class="edge">
<title>2&#45;&gt;3</title>
<path fill="none" stroke="#000000" d="M246.1209,-460.8796C239.8906,-452.0534 233.2519,-442.6485 226.827,-433.5466"/>
<polygon fill="#000000" stroke="#000000" points="229.6308,-431.4494 221.0045,-425.2981 223.912,-435.4862 229.6308,-431.4494"/>
</g>
<!-- 4 -->
<g id="node7" class="node">
<title>4</title>
<path fill="#9254e9" stroke="#000000" d="M426,-425C426,-425 295,-425 295,-425 289,-425 283,-419 283,-413 283,-413 283,-354 283,-354 283,-348 289,-342 295,-342 295,-342 426,-342 426,-342 432,-342 438,-348 438,-354 438,-354 438,-413 438,-413 438,-419 432,-425 426,-425"/>
<text text-anchor="start" x="291" y="-409.8" font-family="Helvetica,sans-Serif" font-size="14.00" fill="#000000">petal width (cm) ≤ 1.75</text>
<text text-anchor="start" x="325" y="-394.8" font-family="Helvetica,sans-Serif" font-size="14.00" fill="#000000">gini = 0.214</text>
<text text-anchor="start" x="319.5" y="-379.8" font-family="Helvetica,sans-Serif" font-size="14.00" fill="#000000">samples = 41</text>
<text text-anchor="start" x="310" y="-364.8" font-family="Helvetica,sans-Serif" font-size="14.00" fill="#000000">value = [0, 5, 36]</text>
<text text-anchor="start" x="312" y="-349.8" font-family="Helvetica,sans-Serif" font-size="14.00" fill="#000000">class = virginica</text>
</g>
<!-- 2&#45;&gt;4 -->
<g id="edge6" class="edge">
<title>2&#45;&gt;4</title>
<path fill="none" stroke="#000000" d="M305.2289,-460.8796C311.5333,-452.0534 318.251,-442.6485 324.7524,-433.5466"/>
<polygon fill="#000000" stroke="#000000" points="327.6799,-435.4698 330.6442,-425.2981 321.9837,-431.4011 327.6799,-435.4698"/>
</g>
<!-- 7 -->
<g id="node5" class="node">
<title>7</title>
<path fill="#39e581" stroke="#000000" d="M109,-298.5C109,-298.5 12,-298.5 12,-298.5 6,-298.5 0,-292.5 0,-286.5 0,-286.5 0,-242.5 0,-242.5 0,-236.5 6,-230.5 12,-230.5 12,-230.5 109,-230.5 109,-230.5 115,-230.5 121,-236.5 121,-242.5 121,-242.5 121,-286.5 121,-286.5 121,-292.5 115,-298.5 109,-298.5"/>
<text text-anchor="start" x="32.5" y="-283.3" font-family="Helvetica,sans-Serif" font-size="14.00" fill="#000000">gini = 0.0</text>
<text text-anchor="start" x="19.5" y="-268.3" font-family="Helvetica,sans-Serif" font-size="14.00" fill="#000000">samples = 32</text>
<text text-anchor="start" x="10" y="-253.3" font-family="Helvetica,sans-Serif" font-size="14.00" fill="#000000">value = [0, 32, 0]</text>
<text text-anchor="start" x="8" y="-238.3" font-family="Helvetica,sans-Serif" font-size="14.00" fill="#000000">class = versicolor</text>
</g>
<!-- 3&#45;&gt;7 -->
<g id="edge4" class="edge">
<title>3&#45;&gt;7</title>
<path fill="none" stroke="#000000" d="M145.6826,-341.8796C132.7303,-330.1138 118.646,-317.3197 105.7286,-305.5855"/>
<polygon fill="#000000" stroke="#000000" points="108.0306,-302.9482 98.2753,-298.8149 103.3239,-308.1296 108.0306,-302.9482"/>
</g>
<!-- 8 -->
<g id="node6" class="node">
<title>8</title>
<path fill="#8139e5" stroke="#000000" d="M240,-298.5C240,-298.5 151,-298.5 151,-298.5 145,-298.5 139,-292.5 139,-286.5 139,-286.5 139,-242.5 139,-242.5 139,-236.5 145,-230.5 151,-230.5 151,-230.5 240,-230.5 240,-230.5 246,-230.5 252,-236.5 252,-242.5 252,-242.5 252,-286.5 252,-286.5 252,-292.5 246,-298.5 240,-298.5"/>
<text text-anchor="start" x="167.5" y="-283.3" font-family="Helvetica,sans-Serif" font-size="14.00" fill="#000000">gini = 0.0</text>
<text text-anchor="start" x="158" y="-268.3" font-family="Helvetica,sans-Serif" font-size="14.00" fill="#000000">samples = 1</text>
<text text-anchor="start" x="148.5" y="-253.3" font-family="Helvetica,sans-Serif" font-size="14.00" fill="#000000">value = [0, 0, 1]</text>
<text text-anchor="start" x="147" y="-238.3" font-family="Helvetica,sans-Serif" font-size="14.00" fill="#000000">class = virginica</text>
</g>
<!-- 3&#45;&gt;8 -->
<g id="edge5" class="edge">
<title>3&#45;&gt;8</title>
<path fill="none" stroke="#000000" d="M192.899,-341.8796C193.2575,-331.2134 193.6445,-319.7021 194.0075,-308.9015"/>
<polygon fill="#000000" stroke="#000000" points="197.5085,-308.9269 194.3466,-298.8149 190.5125,-308.6917 197.5085,-308.9269"/>
</g>
<!-- 5 -->
<g id="node8" class="node">
<title>5</title>
<path fill="#ffffff" stroke="#000000" d="M425.5,-306C425.5,-306 289.5,-306 289.5,-306 283.5,-306 277.5,-300 277.5,-294 277.5,-294 277.5,-235 277.5,-235 277.5,-229 283.5,-223 289.5,-223 289.5,-223 425.5,-223 425.5,-223 431.5,-223 437.5,-229 437.5,-235 437.5,-235 437.5,-294 437.5,-294 437.5,-300 431.5,-306 425.5,-306"/>
<text text-anchor="start" x="285.5" y="-290.8" font-family="Helvetica,sans-Serif" font-size="14.00" fill="#000000">petal length (cm) ≤ 4.95</text>
<text text-anchor="start" x="329.5" y="-275.8" font-family="Helvetica,sans-Serif" font-size="14.00" fill="#000000">gini = 0.5</text>
<text text-anchor="start" x="320" y="-260.8" font-family="Helvetica,sans-Serif" font-size="14.00" fill="#000000">samples = 8</text>
<text text-anchor="start" x="310.5" y="-245.8" font-family="Helvetica,sans-Serif" font-size="14.00" fill="#000000">value = [0, 4, 4]</text>
<text text-anchor="start" x="305" y="-230.8" font-family="Helvetica,sans-Serif" font-size="14.00" fill="#000000">class = versicolor</text>
</g>
<!-- 4&#45;&gt;5 -->
<g id="edge7" class="edge">
<title>4&#45;&gt;5</title>
<path fill="none" stroke="#000000" d="M359.4507,-341.8796C359.2441,-333.6838 359.0249,-324.9891 358.811,-316.5013"/>
<polygon fill="#000000" stroke="#000000" points="362.3047,-316.2067 358.5537,-306.2981 355.307,-316.3831 362.3047,-316.2067"/>
</g>
<!-- 6 -->
<g id="node13" class="node">
<title>6</title>
<path fill="#853fe6" stroke="#000000" d="M561,-298.5C561,-298.5 468,-298.5 468,-298.5 462,-298.5 456,-292.5 456,-286.5 456,-286.5 456,-242.5 456,-242.5 456,-236.5 462,-230.5 468,-230.5 468,-230.5 561,-230.5 561,-230.5 567,-230.5 573,-236.5 573,-242.5 573,-242.5 573,-286.5 573,-286.5 573,-292.5 567,-298.5 561,-298.5"/>
<text text-anchor="start" x="479" y="-283.3" font-family="Helvetica,sans-Serif" font-size="14.00" fill="#000000">gini = 0.059</text>
<text text-anchor="start" x="473.5" y="-268.3" font-family="Helvetica,sans-Serif" font-size="14.00" fill="#000000">samples = 33</text>
<text text-anchor="start" x="464" y="-253.3" font-family="Helvetica,sans-Serif" font-size="14.00" fill="#000000">value = [0, 1, 32]</text>
<text text-anchor="start" x="466" y="-238.3" font-family="Helvetica,sans-Serif" font-size="14.00" fill="#000000">class = virginica</text>
</g>
<!-- 4&#45;&gt;6 -->
<g id="edge12" class="edge">
<title>4&#45;&gt;6</title>
<path fill="none" stroke="#000000" d="M414.3617,-341.8796C429.7304,-330.0038 446.4547,-317.0804 461.7559,-305.2568"/>
<polygon fill="#000000" stroke="#000000" points="464.3196,-307.699 470.0924,-298.8149 460.0395,-302.1599 464.3196,-307.699"/>
</g>
<!-- 9 -->
<g id="node9" class="node">
<title>9</title>
<path fill="#39e581" stroke="#000000" d="M328,-179.5C328,-179.5 231,-179.5 231,-179.5 225,-179.5 219,-173.5 219,-167.5 219,-167.5 219,-123.5 219,-123.5 219,-117.5 225,-111.5 231,-111.5 231,-111.5 328,-111.5 328,-111.5 334,-111.5 340,-117.5 340,-123.5 340,-123.5 340,-167.5 340,-167.5 340,-173.5 334,-179.5 328,-179.5"/>
<text text-anchor="start" x="251.5" y="-164.3" font-family="Helvetica,sans-Serif" font-size="14.00" fill="#000000">gini = 0.0</text>
<text text-anchor="start" x="242" y="-149.3" font-family="Helvetica,sans-Serif" font-size="14.00" fill="#000000">samples = 2</text>
<text text-anchor="start" x="232.5" y="-134.3" font-family="Helvetica,sans-Serif" font-size="14.00" fill="#000000">value = [0, 2, 0]</text>
<text text-anchor="start" x="227" y="-119.3" font-family="Helvetica,sans-Serif" font-size="14.00" fill="#000000">class = versicolor</text>
</g>
<!-- 5&#45;&gt;9 -->
<g id="edge8" class="edge">
<title>5&#45;&gt;9</title>
<path fill="none" stroke="#000000" d="M330.2194,-222.8796C322.8677,-211.6636 314.9036,-199.5131 307.5126,-188.2372"/>
<polygon fill="#000000" stroke="#000000" points="310.4014,-186.2598 301.9921,-179.8149 304.5469,-190.0972 310.4014,-186.2598"/>
</g>
<!-- 10 -->
<g id="node10" class="node">
<title>10</title>
<path fill="#c09cf2" stroke="#000000" d="M501,-187C501,-187 370,-187 370,-187 364,-187 358,-181 358,-175 358,-175 358,-116 358,-116 358,-110 364,-104 370,-104 370,-104 501,-104 501,-104 507,-104 513,-110 513,-116 513,-116 513,-175 513,-175 513,-181 507,-187 501,-187"/>
<text text-anchor="start" x="366" y="-171.8" font-family="Helvetica,sans-Serif" font-size="14.00" fill="#000000">petal width (cm) ≤ 1.55</text>
<text text-anchor="start" x="400" y="-156.8" font-family="Helvetica,sans-Serif" font-size="14.00" fill="#000000">gini = 0.444</text>
<text text-anchor="start" x="398" y="-141.8" font-family="Helvetica,sans-Serif" font-size="14.00" fill="#000000">samples = 6</text>
<text text-anchor="start" x="388.5" y="-126.8" font-family="Helvetica,sans-Serif" font-size="14.00" fill="#000000">value = [0, 2, 4]</text>
<text text-anchor="start" x="387" y="-111.8" font-family="Helvetica,sans-Serif" font-size="14.00" fill="#000000">class = virginica</text>
</g>
<!-- 5&#45;&gt;10 -->
<g id="edge9" class="edge">
<title>5&#45;&gt;10</title>
<path fill="none" stroke="#000000" d="M384.7806,-222.8796C390.5068,-214.1434 396.6046,-204.8404 402.5137,-195.8253"/>
<polygon fill="#000000" stroke="#000000" points="405.5482,-197.5803 408.1029,-187.2981 399.6937,-193.7429 405.5482,-197.5803"/>
</g>
<!-- 11 -->
<g id="node11" class="node">
<title>11</title>
<path fill="#8139e5" stroke="#000000" d="M412,-68C412,-68 323,-68 323,-68 317,-68 311,-62 311,-56 311,-56 311,-12 311,-12 311,-6 317,0 323,0 323,0 412,0 412,0 418,0 424,-6 424,-12 424,-12 424,-56 424,-56 424,-62 418,-68 412,-68"/>
<text text-anchor="start" x="339.5" y="-52.8" font-family="Helvetica,sans-Serif" font-size="14.00" fill="#000000">gini = 0.0</text>
<text text-anchor="start" x="330" y="-37.8" font-family="Helvetica,sans-Serif" font-size="14.00" fill="#000000">samples = 3</text>
<text text-anchor="start" x="320.5" y="-22.8" font-family="Helvetica,sans-Serif" font-size="14.00" fill="#000000">value = [0, 0, 3]</text>
<text text-anchor="start" x="319" y="-7.8" font-family="Helvetica,sans-Serif" font-size="14.00" fill="#000000">class = virginica</text>
</g>
<!-- 10&#45;&gt;11 -->
<g id="edge10" class="edge">
<title>10&#45;&gt;11</title>
<path fill="none" stroke="#000000" d="M410.1793,-103.9815C404.7984,-95.1585 399.1068,-85.8258 393.6941,-76.9506"/>
<polygon fill="#000000" stroke="#000000" points="396.5912,-74.9789 388.3962,-68.2637 390.6149,-78.6236 396.5912,-74.9789"/>
</g>
<!-- 12 -->
<g id="node12" class="node">
<title>12</title>
<path fill="#9cf2c0" stroke="#000000" d="M551,-68C551,-68 454,-68 454,-68 448,-68 442,-62 442,-56 442,-56 442,-12 442,-12 442,-6 448,0 454,0 454,0 551,0 551,0 557,0 563,-6 563,-12 563,-12 563,-56 563,-56 563,-62 557,-68 551,-68"/>
<text text-anchor="start" x="467" y="-52.8" font-family="Helvetica,sans-Serif" font-size="14.00" fill="#000000">gini = 0.444</text>
<text text-anchor="start" x="465" y="-37.8" font-family="Helvetica,sans-Serif" font-size="14.00" fill="#000000">samples = 3</text>
<text text-anchor="start" x="455.5" y="-22.8" font-family="Helvetica,sans-Serif" font-size="14.00" fill="#000000">value = [0, 2, 1]</text>
<text text-anchor="start" x="450" y="-7.8" font-family="Helvetica,sans-Serif" font-size="14.00" fill="#000000">class = versicolor</text>
</g>
<!-- 10&#45;&gt;12 -->
<g id="edge11" class="edge">
<title>10&#45;&gt;12</title>
<path fill="none" stroke="#000000" d="M460.4483,-103.9815C465.7501,-95.1585 471.3581,-85.8258 476.6911,-76.9506"/>
<polygon fill="#000000" stroke="#000000" points="479.7605,-78.638 481.9111,-68.2637 473.7604,-75.0325 479.7605,-78.638"/>
</g>
</g>
</svg>
