<?xml version="1.0" encoding="UTF-8" standalone="no"?>
<!DOCTYPE svg PUBLIC "-//W3C//DTD SVG 1.1//EN"
 "http://www.w3.org/Graphics/SVG/1.1/DTD/svg11.dtd">
<!-- Generated by graphviz version 2.40.1 (20161225.0304)
 -->
<!-- Title: Tree Pages: 1 -->
<svg width="857pt" height="671pt"
 viewBox="0.00 0.00 857.00 671.00" xmlns="http://www.w3.org/2000/svg" xmlns:xlink="http://www.w3.org/1999/xlink">
<g id="graph0" class="graph" transform="scale(1 1) rotate(0) translate(4 667)">
<title>Tree</title>
<polygon fill="#ffffff" stroke="transparent" points="-4,4 -4,-667 853,-667 853,4 -4,4"/>
<!-- 0 -->
<g id="node1" class="node">
<title>0</title>
<path fill="#ffffff" stroke="#000000" d="M516.5,-663C516.5,-663 380.5,-663 380.5,-663 374.5,-663 368.5,-657 368.5,-651 368.5,-651 368.5,-592 368.5,-592 368.5,-586 374.5,-580 380.5,-580 380.5,-580 516.5,-580 516.5,-580 522.5,-580 528.5,-586 528.5,-592 528.5,-592 528.5,-651 528.5,-651 528.5,-657 522.5,-663 516.5,-663"/>
<text text-anchor="start" x="376.5" y="-647.8" font-family="Helvetica,sans-Serif" font-size="14.00" fill="#000000">petal length (cm) ≤ 2.45</text>
<text text-anchor="start" x="404.5" y="-632.8" font-family="Helvetica,sans-Serif" font-size="14.00" fill="#000000">entropy = 1.58</text>
<text text-anchor="start" x="403.5" y="-617.8" font-family="Helvetica,sans-Serif" font-size="14.00" fill="#000000">samples = 105</text>
<text text-anchor="start" x="390.5" y="-602.8" font-family="Helvetica,sans-Serif" font-size="14.00" fill="#000000">value = [31, 37, 37]</text>
<text text-anchor="start" x="396" y="-587.8" font-family="Helvetica,sans-Serif" font-size="14.00" fill="#000000">class = versicolor</text>
</g>
<!-- 1 -->
<g id="node2" class="node">
<title>1</title>
<path fill="#e58139" stroke="#000000" d="M418,-536.5C418,-536.5 325,-536.5 325,-536.5 319,-536.5 313,-530.5 313,-524.5 313,-524.5 313,-480.5 313,-480.5 313,-474.5 319,-468.5 325,-468.5 325,-468.5 418,-468.5 418,-468.5 424,-468.5 430,-474.5 430,-480.5 430,-480.5 430,-524.5 430,-524.5 430,-530.5 424,-536.5 418,-536.5"/>
<text text-anchor="start" x="331.5" y="-521.3" font-family="Helvetica,sans-Serif" font-size="14.00" fill="#000000">entropy = 0.0</text>
<text text-anchor="start" x="330.5" y="-506.3" font-family="Helvetica,sans-Serif" font-size="14.00" fill="#000000">samples = 31</text>
<text text-anchor="start" x="321" y="-491.3" font-family="Helvetica,sans-Serif" font-size="14.00" fill="#000000">value = [31, 0, 0]</text>
<text text-anchor="start" x="328" y="-476.3" font-family="Helvetica,sans-Serif" font-size="14.00" fill="#000000">class = setosa</text>
</g>
<!-- 0&#45;&gt;1 -->
<g id="edge1" class="edge">
<title>0&#45;&gt;1</title>
<path fill="none" stroke="#000000" d="M421.5691,-579.8796C414.3117,-568.6636 406.4497,-556.5131 399.1535,-545.2372"/>
<polygon fill="#000000" stroke="#000000" points="402.0748,-543.3093 393.7038,-536.8149 396.1978,-547.112 402.0748,-543.3093"/>
<text text-anchor="middle" x="388.4656" y="-557.56" font-family="Helvetica,sans-Serif" font-size="14.00" fill="#000000">True</text>
</g>
<!-- 2 -->
<g id="node3" class="node">
<title>2</title>
<path fill="#ffffff" stroke="#000000" d="M591,-544C591,-544 460,-544 460,-544 454,-544 448,-538 448,-532 448,-532 448,-473 448,-473 448,-467 454,-461 460,-461 460,-461 591,-461 591,-461 597,-461 603,-467 603,-473 603,-473 603,-532 603,-532 603,-538 597,-544 591,-544"/>
<text text-anchor="start" x="456" y="-528.8" font-family="Helvetica,sans-Serif" font-size="14.00" fill="#000000">petal width (cm) ≤ 1.75</text>
<text text-anchor="start" x="485.5" y="-513.8" font-family="Helvetica,sans-Serif" font-size="14.00" fill="#000000">entropy = 1.0</text>
<text text-anchor="start" x="484.5" y="-498.8" font-family="Helvetica,sans-Serif" font-size="14.00" fill="#000000">samples = 74</text>
<text text-anchor="start" x="471" y="-483.8" font-family="Helvetica,sans-Serif" font-size="14.00" fill="#000000">value = [0, 37, 37]</text>
<text text-anchor="start" x="473" y="-468.8" font-family="Helvetica,sans-Serif" font-size="14.00" fill="#000000">class = versicolor</text>
</g>
<!-- 0&#45;&gt;2 -->
<g id="edge2" class="edge">
<title>0&#45;&gt;2</title>
<path fill="none" stroke="#000000" d="M475.4309,-579.8796C481.0837,-571.1434 487.1033,-561.8404 492.9366,-552.8253"/>
<polygon fill="#000000" stroke="#000000" points="495.9601,-554.5952 498.4542,-544.2981 490.0831,-550.7924 495.9601,-554.5952"/>
<text text-anchor="middle" x="503.6924" y="-565.0431" font-family="Helvetica,sans-Serif" font-size="14.00" fill="#000000">False</text>
</g>
<!-- 3 -->
<g id="node4" class="node">
<title>3</title>
<path fill="#54e992" stroke="#000000" d="M480.5,-425C480.5,-425 344.5,-425 344.5,-425 338.5,-425 332.5,-419 332.5,-413 332.5,-413 332.5,-354 332.5,-354 332.5,-348 338.5,-342 344.5,-342 344.5,-342 480.5,-342 480.5,-342 486.5,-342 492.5,-348 492.5,-354 492.5,-354 492.5,-413 492.5,-413 492.5,-419 486.5,-425 480.5,-425"/>
<text text-anchor="start" x="340.5" y="-409.8" font-family="Helvetica,sans-Serif" font-size="14.00" fill="#000000">petal length (cm) ≤ 4.95</text>
<text text-anchor="start" x="365" y="-394.8" font-family="Helvetica,sans-Serif" font-size="14.00" fill="#000000">entropy = 0.535</text>
<text text-anchor="start" x="371.5" y="-379.8" font-family="Helvetica,sans-Serif" font-size="14.00" fill="#000000">samples = 41</text>
<text text-anchor="start" x="362" y="-364.8" font-family="Helvetica,sans-Serif" font-size="14.00" fill="#000000">value = [0, 36, 5]</text>
<text text-anchor="start" x="360" y="-349.8" font-family="Helvetica,sans-Serif" font-size="14.00" fill="#000000">class = versicolor</text>
</g>
<!-- 2&#45;&gt;3 -->
<g id="edge3" class="edge">
<title>2&#45;&gt;3</title>
<path fill="none" stroke="#000000" d="M485.9781,-460.8796C477.3403,-451.7832 468.119,-442.0722 459.2303,-432.7116"/>
<polygon fill="#000000" stroke="#000000" points="461.6146,-430.1395 452.1906,-425.2981 456.5385,-434.9597 461.6146,-430.1395"/>
</g>
<!-- 12 -->
<g id="node13" class="node">
<title>12</title>
<path fill="#853fe6" stroke="#000000" d="M706.5,-425C706.5,-425 570.5,-425 570.5,-425 564.5,-425 558.5,-419 558.5,-413 558.5,-413 558.5,-354 558.5,-354 558.5,-348 564.5,-342 570.5,-342 570.5,-342 706.5,-342 706.5,-342 712.5,-342 718.5,-348 718.5,-354 718.5,-354 718.5,-413 718.5,-413 718.5,-419 712.5,-425 706.5,-425"/>
<text text-anchor="start" x="566.5" y="-409.8" font-family="Helvetica,sans-Serif" font-size="14.00" fill="#000000">petal length (cm) ≤ 4.85</text>
<text text-anchor="start" x="591" y="-394.8" font-family="Helvetica,sans-Serif" font-size="14.00" fill="#000000">entropy = 0.196</text>
<text text-anchor="start" x="597.5" y="-379.8" font-family="Helvetica,sans-Serif" font-size="14.00" fill="#000000">samples = 33</text>
<text text-anchor="start" x="588" y="-364.8" font-family="Helvetica,sans-Serif" font-size="14.00" fill="#000000">value = [0, 1, 32]</text>
<text text-anchor="start" x="590" y="-349.8" font-family="Helvetica,sans-Serif" font-size="14.00" fill="#000000">class = virginica</text>
</g>
<!-- 2&#45;&gt;12 -->
<g id="edge12" class="edge">
<title>2&#45;&gt;12</title>
<path fill="none" stroke="#000000" d="M565.0219,-460.8796C573.6597,-451.7832 582.881,-442.0722 591.7697,-432.7116"/>
<polygon fill="#000000" stroke="#000000" points="594.4615,-434.9597 598.8094,-425.2981 589.3854,-430.1395 594.4615,-434.9597"/>
</g>
<!-- 4 -->
<g id="node5" class="node">
<title>4</title>
<path fill="#3fe685" stroke="#000000" d="M257,-306C257,-306 134,-306 134,-306 128,-306 122,-300 122,-294 122,-294 122,-235 122,-235 122,-229 128,-223 134,-223 134,-223 257,-223 257,-223 263,-223 269,-229 269,-235 269,-235 269,-294 269,-294 269,-300 263,-306 257,-306"/>
<text text-anchor="start" x="130" y="-290.8" font-family="Helvetica,sans-Serif" font-size="14.00" fill="#000000">petal width (cm) ≤ 1.6</text>
<text text-anchor="start" x="148" y="-275.8" font-family="Helvetica,sans-Serif" font-size="14.00" fill="#000000">entropy = 0.187</text>
<text text-anchor="start" x="154.5" y="-260.8" font-family="Helvetica,sans-Serif" font-size="14.00" fill="#000000">samples = 35</text>
<text text-anchor="start" x="145" y="-245.8" font-family="Helvetica,sans-Serif" font-size="14.00" fill="#000000">value = [0, 34, 1]</text>
<text text-anchor="start" x="143" y="-230.8" font-family="Helvetica,sans-Serif" font-size="14.00" fill="#000000">class = versicolor</text>
</g>
<!-- 3&#45;&gt;4 -->
<g id="edge4" class="edge">
<title>3&#45;&gt;4</title>
<path fill="none" stroke="#000000" d="M336.6039,-341.8796C317.7176,-331.5226 297.3784,-320.3688 278.1835,-309.8426"/>
<polygon fill="#000000" stroke="#000000" points="279.6113,-306.6339 269.1602,-304.8943 276.2455,-312.7716 279.6113,-306.6339"/>
</g>
<!-- 7 -->
<g id="node8" class="node">
<title>7</title>
<path fill="#c09cf2" stroke="#000000" d="M478,-306C478,-306 347,-306 347,-306 341,-306 335,-300 335,-294 335,-294 335,-235 335,-235 335,-229 341,-223 347,-223 347,-223 478,-223 478,-223 484,-223 490,-229 490,-235 490,-235 490,-294 490,-294 490,-300 484,-306 478,-306"/>
<text text-anchor="start" x="343" y="-290.8" font-family="Helvetica,sans-Serif" font-size="14.00" fill="#000000">petal width (cm) ≤ 1.55</text>
<text text-anchor="start" x="365" y="-275.8" font-family="Helvetica,sans-Serif" font-size="14.00" fill="#000000">entropy = 0.918</text>
<text text-anchor="start" x="375" y="-260.8" font-family="Helvetica,sans-Serif" font-size="14.00" fill="#000000">samples = 6</text>
<text text-anchor="start" x="365.5" y="-245.8" font-family="Helvetica,sans-Serif" font-size="14.00" fill="#000000">value = [0, 2, 4]</text>
<text text-anchor="start" x="364" y="-230.8" font-family="Helvetica,sans-Serif" font-size="14.00" fill="#000000">class = virginica</text>
</g>
<!-- 3&#45;&gt;7 -->
<g id="edge7" class="edge">
<title>3&#45;&gt;7</title>
<path fill="none" stroke="#000000" d="M412.5,-341.8796C412.5,-333.6838 412.5,-324.9891 412.5,-316.5013"/>
<polygon fill="#000000" stroke="#000000" points="416.0001,-316.298 412.5,-306.2981 409.0001,-316.2981 416.0001,-316.298"/>
</g>
<!-- 5 -->
<g id="node6" class="node">
<title>5</title>
<path fill="#39e581" stroke="#000000" d="M109,-179.5C109,-179.5 12,-179.5 12,-179.5 6,-179.5 0,-173.5 0,-167.5 0,-167.5 0,-123.5 0,-123.5 0,-117.5 6,-111.5 12,-111.5 12,-111.5 109,-111.5 109,-111.5 115,-111.5 121,-117.5 121,-123.5 121,-123.5 121,-167.5 121,-167.5 121,-173.5 115,-179.5 109,-179.5"/>
<text text-anchor="start" x="20.5" y="-164.3" font-family="Helvetica,sans-Serif" font-size="14.00" fill="#000000">entropy = 0.0</text>
<text text-anchor="start" x="19.5" y="-149.3" font-family="Helvetica,sans-Serif" font-size="14.00" fill="#000000">samples = 34</text>
<text text-anchor="start" x="10" y="-134.3" font-family="Helvetica,sans-Serif" font-size="14.00" fill="#000000">value = [0, 34, 0]</text>
<text text-anchor="start" x="8" y="-119.3" font-family="Helvetica,sans-Serif" font-size="14.00" fill="#000000">class = versicolor</text>
</g>
<!-- 4&#45;&gt;5 -->
<g id="edge5" class="edge">
<title>4&#45;&gt;5</title>
<path fill="none" stroke="#000000" d="M148.2836,-222.8796C134.9358,-211.1138 120.4215,-198.3197 107.1096,-186.5855"/>
<polygon fill="#000000" stroke="#000000" points="109.2448,-183.8019 99.4287,-179.8149 104.616,-189.0531 109.2448,-183.8019"/>
</g>
<!-- 6 -->
<g id="node7" class="node">
<title>6</title>
<path fill="#8139e5" stroke="#000000" d="M240,-179.5C240,-179.5 151,-179.5 151,-179.5 145,-179.5 139,-173.5 139,-167.5 139,-167.5 139,-123.5 139,-123.5 139,-117.5 145,-111.5 151,-111.5 151,-111.5 240,-111.5 240,-111.5 246,-111.5 252,-117.5 252,-123.5 252,-123.5 252,-167.5 252,-167.5 252,-173.5 246,-179.5 240,-179.5"/>
<text text-anchor="start" x="155.5" y="-164.3" font-family="Helvetica,sans-Serif" font-size="14.00" fill="#000000">entropy = 0.0</text>
<text text-anchor="start" x="158" y="-149.3" font-family="Helvetica,sans-Serif" font-size="14.00" fill="#000000">samples = 1</text>
<text text-anchor="start" x="148.5" y="-134.3" font-family="Helvetica,sans-Serif" font-size="14.00" fill="#000000">value = [0, 0, 1]</text>
<text text-anchor="start" x="147" y="-119.3" font-family="Helvetica,sans-Serif" font-size="14.00" fill="#000000">class = virginica</text>
</g>
<!-- 4&#45;&gt;6 -->
<g id="edge6" class="edge">
<title>4&#45;&gt;6</title>
<path fill="none" stroke="#000000" d="M195.5,-222.8796C195.5,-212.2134 195.5,-200.7021 195.5,-189.9015"/>
<polygon fill="#000000" stroke="#000000" points="199.0001,-189.8149 195.5,-179.8149 192.0001,-189.815 199.0001,-189.8149"/>
</g>
<!-- 8 -->
<g id="node9" class="node">
<title>8</title>
<path fill="#8139e5" stroke="#000000" d="M371,-179.5C371,-179.5 282,-179.5 282,-179.5 276,-179.5 270,-173.5 270,-167.5 270,-167.5 270,-123.5 270,-123.5 270,-117.5 276,-111.5 282,-111.5 282,-111.5 371,-111.5 371,-111.5 377,-111.5 383,-117.5 383,-123.5 383,-123.5 383,-167.5 383,-167.5 383,-173.5 377,-179.5 371,-179.5"/>
<text text-anchor="start" x="286.5" y="-164.3" font-family="Helvetica,sans-Serif" font-size="14.00" fill="#000000">entropy = 0.0</text>
<text text-anchor="start" x="289" y="-149.3" font-family="Helvetica,sans-Serif" font-size="14.00" fill="#000000">samples = 3</text>
<text text-anchor="start" x="279.5" y="-134.3" font-family="Helvetica,sans-Serif" font-size="14.00" fill="#000000">value = [0, 0, 3]</text>
<text text-anchor="start" x="278" y="-119.3" font-family="Helvetica,sans-Serif" font-size="14.00" fill="#000000">class = virginica</text>
</g>
<!-- 7&#45;&gt;8 -->
<g id="edge8" class="edge">
<title>7&#45;&gt;8</title>
<path fill="none" stroke="#000000" d="M382.4214,-222.8796C374.3157,-211.6636 365.5347,-199.5131 357.3857,-188.2372"/>
<polygon fill="#000000" stroke="#000000" points="359.9932,-185.8698 351.299,-179.8149 354.3197,-189.9701 359.9932,-185.8698"/>
</g>
<!-- 9 -->
<g id="node10" class="node">
<title>9</title>
<path fill="#9cf2c0" stroke="#000000" d="M552,-187C552,-187 413,-187 413,-187 407,-187 401,-181 401,-175 401,-175 401,-116 401,-116 401,-110 407,-104 413,-104 413,-104 552,-104 552,-104 558,-104 564,-110 564,-116 564,-116 564,-175 564,-175 564,-181 558,-187 552,-187"/>
<text text-anchor="start" x="409" y="-171.8" font-family="Helvetica,sans-Serif" font-size="14.00" fill="#000000">sepal length (cm) ≤ 6.95</text>
<text text-anchor="start" x="435" y="-156.8" font-family="Helvetica,sans-Serif" font-size="14.00" fill="#000000">entropy = 0.918</text>
<text text-anchor="start" x="445" y="-141.8" font-family="Helvetica,sans-Serif" font-size="14.00" fill="#000000">samples = 3</text>
<text text-anchor="start" x="435.5" y="-126.8" font-family="Helvetica,sans-Serif" font-size="14.00" fill="#000000">value = [0, 2, 1]</text>
<text text-anchor="start" x="430" y="-111.8" font-family="Helvetica,sans-Serif" font-size="14.00" fill="#000000">class = versicolor</text>
</g>
<!-- 7&#45;&gt;9 -->
<g id="edge9" class="edge">
<title>7&#45;&gt;9</title>
<path fill="none" stroke="#000000" d="M436.9826,-222.8796C442.0685,-214.2335 447.4811,-205.0322 452.7328,-196.1042"/>
<polygon fill="#000000" stroke="#000000" points="455.8594,-197.692 457.9129,-187.2981 449.8259,-194.1428 455.8594,-197.692"/>
</g>
<!-- 10 -->
<g id="node11" class="node">
<title>10</title>
<path fill="#39e581" stroke="#000000" d="M463,-68C463,-68 366,-68 366,-68 360,-68 354,-62 354,-56 354,-56 354,-12 354,-12 354,-6 360,0 366,0 366,0 463,0 463,0 469,0 475,-6 475,-12 475,-12 475,-56 475,-56 475,-62 469,-68 463,-68"/>
<text text-anchor="start" x="374.5" y="-52.8" font-family="Helvetica,sans-Serif" font-size="14.00" fill="#000000">entropy = 0.0</text>
<text text-anchor="start" x="377" y="-37.8" font-family="Helvetica,sans-Serif" font-size="14.00" fill="#000000">samples = 2</text>
<text text-anchor="start" x="367.5" y="-22.8" font-family="Helvetica,sans-Serif" font-size="14.00" fill="#000000">value = [0, 2, 0]</text>
<text text-anchor="start" x="362" y="-7.8" font-family="Helvetica,sans-Serif" font-size="14.00" fill="#000000">class = versicolor</text>
</g>
<!-- 9&#45;&gt;10 -->
<g id="edge10" class="edge">
<title>9&#45;&gt;10</title>
<path fill="none" stroke="#000000" d="M457.1793,-103.9815C451.7984,-95.1585 446.1068,-85.8258 440.6941,-76.9506"/>
<polygon fill="#000000" stroke="#000000" points="443.5912,-74.9789 435.3962,-68.2637 437.6149,-78.6236 443.5912,-74.9789"/>
</g>
<!-- 11 -->
<g id="node12" class="node">
<title>11</title>
<path fill="#8139e5" stroke="#000000" d="M594,-68C594,-68 505,-68 505,-68 499,-68 493,-62 493,-56 493,-56 493,-12 493,-12 493,-6 499,0 505,0 505,0 594,0 594,0 600,0 606,-6 606,-12 606,-12 606,-56 606,-56 606,-62 600,-68 594,-68"/>
<text text-anchor="start" x="509.5" y="-52.8" font-family="Helvetica,sans-Serif" font-size="14.00" fill="#000000">entropy = 0.0</text>
<text text-anchor="start" x="512" y="-37.8" font-family="Helvetica,sans-Serif" font-size="14.00" fill="#000000">samples = 1</text>
<text text-anchor="start" x="502.5" y="-22.8" font-family="Helvetica,sans-Serif" font-size="14.00" fill="#000000">value = [0, 0, 1]</text>
<text text-anchor="start" x="501" y="-7.8" font-family="Helvetica,sans-Serif" font-size="14.00" fill="#000000">class = virginica</text>
</g>
<!-- 9&#45;&gt;11 -->
<g id="edge11" class="edge">
<title>9&#45;&gt;11</title>
<path fill="none" stroke="#000000" d="M507.4483,-103.9815C512.7501,-95.1585 518.3581,-85.8258 523.6911,-76.9506"/>
<polygon fill="#000000" stroke="#000000" points="526.7605,-78.638 528.9111,-68.2637 520.7604,-75.0325 526.7605,-78.638"/>
</g>
<!-- 13 -->
<g id="node14" class="node">
<title>13</title>
<path fill="#c09cf2" stroke="#000000" d="M701.5,-306C701.5,-306 575.5,-306 575.5,-306 569.5,-306 563.5,-300 563.5,-294 563.5,-294 563.5,-235 563.5,-235 563.5,-229 569.5,-223 575.5,-223 575.5,-223 701.5,-223 701.5,-223 707.5,-223 713.5,-229 713.5,-235 713.5,-235 713.5,-294 713.5,-294 713.5,-300 707.5,-306 701.5,-306"/>
<text text-anchor="start" x="571.5" y="-290.8" font-family="Helvetica,sans-Serif" font-size="14.00" fill="#000000">sepal width (cm) ≤ 3.1</text>
<text text-anchor="start" x="591" y="-275.8" font-family="Helvetica,sans-Serif" font-size="14.00" fill="#000000">entropy = 0.918</text>
<text text-anchor="start" x="601" y="-260.8" font-family="Helvetica,sans-Serif" font-size="14.00" fill="#000000">samples = 3</text>
<text text-anchor="start" x="591.5" y="-245.8" font-family="Helvetica,sans-Serif" font-size="14.00" fill="#000000">value = [0, 1, 2]</text>
<text text-anchor="start" x="590" y="-230.8" font-family="Helvetica,sans-Serif" font-size="14.00" fill="#000000">class = virginica</text>
</g>
<!-- 12&#45;&gt;13 -->
<g id="edge13" class="edge">
<title>12&#45;&gt;13</title>
<path fill="none" stroke="#000000" d="M638.5,-341.8796C638.5,-333.6838 638.5,-324.9891 638.5,-316.5013"/>
<polygon fill="#000000" stroke="#000000" points="642.0001,-316.298 638.5,-306.2981 635.0001,-316.2981 642.0001,-316.298"/>
</g>
<!-- 16 -->
<g id="node17" class="node">
<title>16</title>
<path fill="#8139e5" stroke="#000000" d="M837,-298.5C837,-298.5 744,-298.5 744,-298.5 738,-298.5 732,-292.5 732,-286.5 732,-286.5 732,-242.5 732,-242.5 732,-236.5 738,-230.5 744,-230.5 744,-230.5 837,-230.5 837,-230.5 843,-230.5 849,-236.5 849,-242.5 849,-242.5 849,-286.5 849,-286.5 849,-292.5 843,-298.5 837,-298.5"/>
<text text-anchor="start" x="750.5" y="-283.3" font-family="Helvetica,sans-Serif" font-size="14.00" fill="#000000">entropy = 0.0</text>
<text text-anchor="start" x="749.5" y="-268.3" font-family="Helvetica,sans-Serif" font-size="14.00" fill="#000000">samples = 30</text>
<text text-anchor="start" x="740" y="-253.3" font-family="Helvetica,sans-Serif" font-size="14.00" fill="#000000">value = [0, 0, 30]</text>
<text text-anchor="start" x="742" y="-238.3" font-family="Helvetica,sans-Serif" font-size="14.00" fill="#000000">class = virginica</text>
</g>
<!-- 12&#45;&gt;16 -->
<g id="edge16" class="edge">
<title>12&#45;&gt;16</title>
<path fill="none" stroke="#000000" d="M691.6622,-341.8796C706.8313,-330.0038 723.3384,-317.0804 738.4409,-305.2568"/>
<polygon fill="#000000" stroke="#000000" points="740.9528,-307.7353 746.6692,-298.8149 736.6376,-302.2236 740.9528,-307.7353"/>
</g>
<!-- 14 -->
<g id="node15" class="node">
<title>14</title>
<path fill="#8139e5" stroke="#000000" d="M683,-179.5C683,-179.5 594,-179.5 594,-179.5 588,-179.5 582,-173.5 582,-167.5 582,-167.5 582,-123.5 582,-123.5 582,-117.5 588,-111.5 594,-111.5 594,-111.5 683,-111.5 683,-111.5 689,-111.5 695,-117.5 695,-123.5 695,-123.5 695,-167.5 695,-167.5 695,-173.5 689,-179.5 683,-179.5"/>
<text text-anchor="start" x="598.5" y="-164.3" font-family="Helvetica,sans-Serif" font-size="14.00" fill="#000000">entropy = 0.0</text>
<text text-anchor="start" x="601" y="-149.3" font-family="Helvetica,sans-Serif" font-size="14.00" fill="#000000">samples = 2</text>
<text text-anchor="start" x="591.5" y="-134.3" font-family="Helvetica,sans-Serif" font-size="14.00" fill="#000000">value = [0, 0, 2]</text>
<text text-anchor="start" x="590" y="-119.3" font-family="Helvetica,sans-Serif" font-size="14.00" fill="#000000">class = virginica</text>
</g>
<!-- 13&#45;&gt;14 -->
<g id="edge14" class="edge">
<title>13&#45;&gt;14</title>
<path fill="none" stroke="#000000" d="M638.5,-222.8796C638.5,-212.2134 638.5,-200.7021 638.5,-189.9015"/>
<polygon fill="#000000" stroke="#000000" points="642.0001,-189.8149 638.5,-179.8149 635.0001,-189.815 642.0001,-189.8149"/>
</g>
<!-- 15 -->
<g id="node16" class="node">
<title>15</title>
<path fill="#39e581" stroke="#000000" d="M822,-179.5C822,-179.5 725,-179.5 725,-179.5 719,-179.5 713,-173.5 713,-167.5 713,-167.5 713,-123.5 713,-123.5 713,-117.5 719,-111.5 725,-111.5 725,-111.5 822,-111.5 822,-111.5 828,-111.5 834,-117.5 834,-123.5 834,-123.5 834,-167.5 834,-167.5 834,-173.5 828,-179.5 822,-179.5"/>
<text text-anchor="start" x="733.5" y="-164.3" font-family="Helvetica,sans-Serif" font-size="14.00" fill="#000000">entropy = 0.0</text>
<text text-anchor="start" x="736" y="-149.3" font-family="Helvetica,sans-Serif" font-size="14.00" fill="#000000">samples = 1</text>
<text text-anchor="start" x="726.5" y="-134.3" font-family="Helvetica,sans-Serif" font-size="14.00" fill="#000000">value = [0, 1, 0]</text>
<text text-anchor="start" x="721" y="-119.3" font-family="Helvetica,sans-Serif" font-size="14.00" fill="#000000">class = versicolor</text>
</g>
<!-- 13&#45;&gt;15 -->
<g id="edge15" class="edge">
<title>13&#45;&gt;15</title>
<path fill="none" stroke="#000000" d="M685.7164,-222.8796C699.0642,-211.1138 713.5785,-198.3197 726.8904,-186.5855"/>
<polygon fill="#000000" stroke="#000000" points="729.384,-189.0531 734.5713,-179.8149 724.7552,-183.8019 729.384,-189.0531"/>
</g>
</g>
</svg>
