<?xml version="1.0" encoding="UTF-8" standalone="no"?>
<!DOCTYPE svg PUBLIC "-//W3C//DTD SVG 1.1//EN"
 "http://www.w3.org/Graphics/SVG/1.1/DTD/svg11.dtd">
<!-- Generated by graphviz version 2.40.1 (20161225.0304)
 -->
<!-- Title: Tree Pages: 1 -->
<svg width="347pt" height="314pt"
 viewBox="0.00 0.00 347.00 314.00" xmlns="http://www.w3.org/2000/svg" xmlns:xlink="http://www.w3.org/1999/xlink">
<g id="graph0" class="graph" transform="scale(1 1) rotate(0) translate(4 310)">
<title>Tree</title>
<polygon fill="#ffffff" stroke="transparent" points="-4,4 -4,-310 343,-310 343,4 -4,4"/>
<!-- 0 -->
<g id="node1" class="node">
<title>0</title>
<path fill="#ffffff" stroke="#000000" d="M203.5,-306C203.5,-306 67.5,-306 67.5,-306 61.5,-306 55.5,-300 55.5,-294 55.5,-294 55.5,-235 55.5,-235 55.5,-229 61.5,-223 67.5,-223 67.5,-223 203.5,-223 203.5,-223 209.5,-223 215.5,-229 215.5,-235 215.5,-235 215.5,-294 215.5,-294 215.5,-300 209.5,-306 203.5,-306"/>
<text text-anchor="start" x="63.5" y="-290.8" font-family="Helvetica,sans-Serif" font-size="14.00" fill="#000000">petal length (cm) ≤ 2.45</text>
<text text-anchor="start" x="100" y="-275.8" font-family="Helvetica,sans-Serif" font-size="14.00" fill="#000000">gini = 0.664</text>
<text text-anchor="start" x="90.5" y="-260.8" font-family="Helvetica,sans-Serif" font-size="14.00" fill="#000000">samples = 105</text>
<text text-anchor="start" x="77.5" y="-245.8" font-family="Helvetica,sans-Serif" font-size="14.00" fill="#000000">value = [31, 37, 37]</text>
<text text-anchor="start" x="83" y="-230.8" font-family="Helvetica,sans-Serif" font-size="14.00" fill="#000000">class = versicolor</text>
</g>
<!-- 1 -->
<g id="node2" class="node">
<title>1</title>
<path fill="#e58139" stroke="#000000" d="M105,-179.5C105,-179.5 12,-179.5 12,-179.5 6,-179.5 0,-173.5 0,-167.5 0,-167.5 0,-123.5 0,-123.5 0,-117.5 6,-111.5 12,-111.5 12,-111.5 105,-111.5 105,-111.5 111,-111.5 117,-117.5 117,-123.5 117,-123.5 117,-167.5 117,-167.5 117,-173.5 111,-179.5 105,-179.5"/>
<text text-anchor="start" x="30.5" y="-164.3" font-family="Helvetica,sans-Serif" font-size="14.00" fill="#000000">gini = 0.0</text>
<text text-anchor="start" x="17.5" y="-149.3" font-family="Helvetica,sans-Serif" font-size="14.00" fill="#000000">samples = 31</text>
<text text-anchor="start" x="8" y="-134.3" font-family="Helvetica,sans-Serif" font-size="14.00" fill="#000000">value = [31, 0, 0]</text>
<text text-anchor="start" x="15" y="-119.3" font-family="Helvetica,sans-Serif" font-size="14.00" fill="#000000">class = setosa</text>
</g>
<!-- 0&#45;&gt;1 -->
<g id="edge1" class="edge">
<title>0&#45;&gt;1</title>
<path fill="none" stroke="#000000" d="M108.5691,-222.8796C101.3117,-211.6636 93.4497,-199.5131 86.1535,-188.2372"/>
<polygon fill="#000000" stroke="#000000" points="89.0748,-186.3093 80.7038,-179.8149 83.1978,-190.112 89.0748,-186.3093"/>
<text text-anchor="middle" x="75.4656" y="-200.56" font-family="Helvetica,sans-Serif" font-size="14.00" fill="#000000">True</text>
</g>
<!-- 2 -->
<g id="node3" class="node">
<title>2</title>
<path fill="#ffffff" stroke="#000000" d="M278,-187C278,-187 147,-187 147,-187 141,-187 135,-181 135,-175 135,-175 135,-116 135,-116 135,-110 141,-104 147,-104 147,-104 278,-104 278,-104 284,-104 290,-110 290,-116 290,-116 290,-175 290,-175 290,-181 284,-187 278,-187"/>
<text text-anchor="start" x="143" y="-171.8" font-family="Helvetica,sans-Serif" font-size="14.00" fill="#000000">petal width (cm) ≤ 1.75</text>
<text text-anchor="start" x="184.5" y="-156.8" font-family="Helvetica,sans-Serif" font-size="14.00" fill="#000000">gini = 0.5</text>
<text text-anchor="start" x="171.5" y="-141.8" font-family="Helvetica,sans-Serif" font-size="14.00" fill="#000000">samples = 74</text>
<text text-anchor="start" x="158" y="-126.8" font-family="Helvetica,sans-Serif" font-size="14.00" fill="#000000">value = [0, 37, 37]</text>
<text text-anchor="start" x="160" y="-111.8" font-family="Helvetica,sans-Serif" font-size="14.00" fill="#000000">class = versicolor</text>
</g>
<!-- 0&#45;&gt;2 -->
<g id="edge2" class="edge">
<title>0&#45;&gt;2</title>
<path fill="none" stroke="#000000" d="M162.4309,-222.8796C168.0837,-214.1434 174.1033,-204.8404 179.9366,-195.8253"/>
<polygon fill="#000000" stroke="#000000" points="182.9601,-197.5952 185.4542,-187.2981 177.0831,-193.7924 182.9601,-197.5952"/>
<text text-anchor="middle" x="190.6924" y="-208.0431" font-family="Helvetica,sans-Serif" font-size="14.00" fill="#000000">False</text>
</g>
<!-- 3 -->
<g id="node4" class="node">
<title>3</title>
<path fill="#54e992" stroke="#000000" d="M192,-68C192,-68 95,-68 95,-68 89,-68 83,-62 83,-56 83,-56 83,-12 83,-12 83,-6 89,0 95,0 95,0 192,0 192,0 198,0 204,-6 204,-12 204,-12 204,-56 204,-56 204,-62 198,-68 192,-68"/>
<text text-anchor="start" x="108" y="-52.8" font-family="Helvetica,sans-Serif" font-size="14.00" fill="#000000">gini = 0.214</text>
<text text-anchor="start" x="102.5" y="-37.8" font-family="Helvetica,sans-Serif" font-size="14.00" fill="#000000">samples = 41</text>
<text text-anchor="start" x="93" y="-22.8" font-family="Helvetica,sans-Serif" font-size="14.00" fill="#000000">value = [0, 36, 5]</text>
<text text-anchor="start" x="91" y="-7.8" font-family="Helvetica,sans-Serif" font-size="14.00" fill="#000000">class = versicolor</text>
</g>
<!-- 2&#45;&gt;3 -->
<g id="edge3" class="edge">
<title>2&#45;&gt;3</title>
<path fill="none" stroke="#000000" d="M186.8069,-103.9815C181.3469,-95.1585 175.5716,-85.8258 170.0793,-76.9506"/>
<polygon fill="#000000" stroke="#000000" points="172.942,-74.9254 164.7035,-68.2637 166.9896,-78.609 172.942,-74.9254"/>
</g>
<!-- 4 -->
<g id="node5" class="node">
<title>4</title>
<path fill="#853fe6" stroke="#000000" d="M327,-68C327,-68 234,-68 234,-68 228,-68 222,-62 222,-56 222,-56 222,-12 222,-12 222,-6 228,0 234,0 234,0 327,0 327,0 333,0 339,-6 339,-12 339,-12 339,-56 339,-56 339,-62 333,-68 327,-68"/>
<text text-anchor="start" x="245" y="-52.8" font-family="Helvetica,sans-Serif" font-size="14.00" fill="#000000">gini = 0.059</text>
<text text-anchor="start" x="239.5" y="-37.8" font-family="Helvetica,sans-Serif" font-size="14.00" fill="#000000">samples = 33</text>
<text text-anchor="start" x="230" y="-22.8" font-family="Helvetica,sans-Serif" font-size="14.00" fill="#000000">value = [0, 1, 32]</text>
<text text-anchor="start" x="232" y="-7.8" font-family="Helvetica,sans-Serif" font-size="14.00" fill="#000000">class = virginica</text>
</g>
<!-- 2&#45;&gt;4 -->
<g id="edge4" class="edge">
<title>2&#45;&gt;4</title>
<path fill="none" stroke="#000000" d="M237.8207,-103.9815C243.2016,-95.1585 248.8932,-85.8258 254.3059,-76.9506"/>
<polygon fill="#000000" stroke="#000000" points="257.3851,-78.6236 259.6038,-68.2637 251.4088,-74.9789 257.3851,-78.6236"/>
</g>
</g>
</svg>
